# File produced by Open Asset Import Library (http://www.assimp.sf.net)
# (assimp v5.0.639693989)

mtllib material.mtl

# 96 vertex positions
v  0.29701987 0.41667774 1.3957288
v  0.29702035 0.41667774 -1.0760652
v  0.30734238 0.45455784 -1.0760652
v  0.30734199 0.45455784 1.3957288
v  0.27210119 0.40098727 1.3957288
v  0.27210167 0.40098727 -1.0760652
v  0.27210119 0.5081284 1.3957288
v  0.29701987 0.49243793 1.3957288
v  0.29702035 0.49243793 -1.0760652
v  0.27210167 0.50812829 -1.0760652
v  -0.2887606 0.40098727 1.3957287
v  -0.28876093 0.40098727 -1.0760655
v  -0.2887606 0.5081284 1.3957287
v  -0.28876093 0.50812829 -1.0760655
v  -0.28411761 0.14256839 -1.3965663
v  -0.28411761 0.20600101 -1.3965663
v  0.25646666 0.20600101 -1.3965663
v  0.25646666 0.14256839 -1.3965663
v  0.2564663 0.20600086 1.3965669
v  -0.28411791 0.20600086 1.3965669
v  -0.28411791 0.14256823 1.3965669
v  0.2564663 0.14256823 1.3965669
v  0.2228933 0.20201199 -0.21062864
v  0.24872687 0.20201199 -0.21062864
v  0.24872687 0.40201199 -0.21062864
v  0.2228933 0.40201199 -0.21062864
v  0.24872702 0.40201199 -0.98250288
v  0.24872702 0.20201199 -0.98250288
v  0.22289337 0.20201199 0.57770413
v  0.24872695 0.20201199 0.57770413
v  0.24872695 0.40201199 0.57770413
v  0.22289337 0.40201199 0.57770413
v  0.24872702 0.20201199 -0.19417006
v  0.22289345 0.20201199 -0.19417006
v  0.22289345 0.40201199 -0.19417006
v  0.24872702 0.40201199 -0.19417006
v  0.24872695 0.20201199 0.59416223
v  0.22289337 0.20201199 0.59416223
v  0.22289337 0.40201199 0.59416223
v  0.24872695 0.40201199 0.59416223
v  0.2487268 0.40201199 1.3660363
v  0.2487268 0.20201199 1.3660363
v  -0.28233445 0.40223497 -0.98250347
v  -0.28233439 0.20705128 -0.98250347
v  -0.28233439 0.20705128 -0.95585674
v  -0.28233445 0.40223497 -0.95585674
v  0.24872702 0.39903116 -0.98250318
v  0.24872702 0.20705128 -0.98250318
v  -0.28233477 0.18916485 1.3644443
v  -0.28233474 0.43687746 1.3644445
v  -0.28233439 0.43281138 -0.95772105
v  -0.28233439 0.18916485 -0.95772105
v  -0.2823348 0.40223497 1.3644444
v  -0.28233474 0.20705128 1.3644444
v  -0.28233474 0.20705128 1.3957666
v  -0.2823348 0.40223497 1.3957666
v  0.24872687 0.39903116 1.3957667
v  0.24872687 0.20705128 1.3957667
v  0.24872687 0.20705128 1.3660365
v  0.24872687 0.39903116 1.3660365
v  -0.28374597 0.14447276 1.3891484
v  -0.28148666 0.019679829 1.3886615
v  -0.22152378 0.02081448 1.3924406
v  -0.2237931 0.14613166 1.3929288
v  -0.27998218 0.14531727 1.3291773
v  -0.2777127 0.02000015 1.3286877
v  -0.2200193 0.14645188 1.3329566
v  -0.21774986 0.02113476 1.332467
v  0.19372123 0.14447276 1.3891485
v  0.19598061 0.019679829 1.3886615
v  0.2559436 0.02081448 1.3924406
v  0.25367415 0.14613166 1.3929291
v  0.19748512 0.14531727 1.3291773
v  0.19975455 0.02000015 1.3286877
v  0.25744796 0.14645188 1.3329566
v  0.2597174 0.02113476 1.332467
v  0.25447509 0.02278135 1.3906448
v  0.2498133 0.021040339 1.3853116
v  0.25274634 0.02128906 1.3386996
v  0.2580387 0.023083648 1.3340123
v  -0.28374556 0.14447276 -1.3008848
v  -0.28148624 0.019679829 -1.3013716
v  -0.22152336 0.02081448 -1.2975929
v  -0.22379269 0.14613166 -1.2971044
v  -0.27998176 0.14531727 -1.3608558
v  -0.27771232 0.02000015 -1.3613453
v  -0.22001888 0.14645188 -1.3570765
v  -0.21774948 0.02113476 -1.357566
v  0.1937217 0.14447276 -1.3008848
v  0.19598113 0.019679829 -1.3013716
v  0.25594404 0.02081448 -1.2975926
v  0.25367463 0.14613166 -1.297104
v  0.19748558 0.14531727 -1.3608558
v  0.19975516 0.02000015 -1.3613453
v  0.25744841 0.14645188 -1.3570763
v  0.25971794 0.02113476 -1.3575658

# 204 UV coordinates
vt 1.054513 0.64025903 0
vt 0.23281799 0.64025903 0
vt 0.23281799 0.62720698 0
vt 1.054513 0.62720698 0
vt 0.79869503 0.82219601 0
vt 0.79869503 0.00050000002 0
vt 0.806979 0.00050000002 0
vt 0.806979 0.82219601 0
vt 0.23281799 0.19072101 0
vt 0.23281799 0.182437 0
vt 1.054513 0.182437 0
vt 1.054513 0.19072101 0
vt 0.23281799 0.61596 0
vt 1.054513 0.61596 0
vt 0.96909899 0.407175 0
vt 0.99428397 0.407175 0
vt 0.98169202 0.410606 0
vt 0.96909899 0.19523101 0
vt 0.99428397 0.19523101 0
vt 0.98169202 0.198662 0
vt 0.612248 0.82219601 0
vt 0.612248 0.00050000002 0
vt 0.23281799 0.37716699 0
vt 1.054513 0.377168 0
vt 0.96388298 0.00050000002 0
vt 0.99949998 0.00050000002 0
vt 0.99949998 0.186947 0
vt 0.96388298 0.186947 0
vt 0.96388298 0.398891 0
vt 0.96388298 0.21244401 0
vt 0.99949998 0.21244401 0
vt 0.99949998 0.398891 0
vt 0.80974197 0.82219601 0
vt 0.80974197 0.00050000002 0
vt 0.84535903 0.00050000002 0
vt 0.84535903 0.82219601 0
vt 0.98496997 0.59446102 0
vt 0.96388298 0.59446102 0
vt 0.96388298 0.41475499 0
vt 0.98496997 0.41475499 0
vt 0.96388298 0.77750301 0
vt 0.96388298 0.59779799 0
vt 0.98496997 0.59779799 0
vt 0.98496997 0.77750301 0
vt 0.207627 0.92901802 0
vt 0.207628 0.00050000002 0
vt 0.228714 0.00050000002 0
vt 0.228714 0.92901802 0
vt 0.20463 0.00050000002 0
vt 0.20463 0.92901802 0
vt 0.183543 0.92901802 0
vt 0.183543 0.00050000002 0
vt 0.180206 0.00050000002 0
vt 0.180206 0.92901802 0
vt 0.00050000002 0.92901802 0
vt 0.00050000002 0.00050000002 0
vt 0.231712 0.92901802 0
vt 0.231712 0.00050000002 0
vt 0.41141799 0.00050000002 0
vt 0.41141799 0.92901802 0
vt 0.524593 0.96388298 0
vt 0.524593 0.972471 0
vt 0.45810699 0.972471 0
vt 0.45810699 0.96388298 0
vt 0.25709301 0.99665099 0
vt 0.00050000002 0.99665099 0
vt 0.00050000002 0.93016499 0
vt 0.25709301 0.93016499 0
vt 0.98796803 0.49182501 0
vt 0.99655598 0.49182501 0
vt 0.99655598 0.55831099 0
vt 0.98796803 0.55831099 0
vt 0.98796803 0.568896 0
vt 0.99655598 0.568896 0
vt 0.99655598 0.635382 0
vt 0.98796803 0.635382 0
vt 0.68098199 0.890679 0
vt 0.424389 0.890679 0
vt 0.424389 0.824193 0
vt 0.68098199 0.824193 0
vt 0.98796803 0.41475499 0
vt 0.99655598 0.41475499 0
vt 0.99655598 0.48124099 0
vt 0.98796803 0.48124099 0
vt 0.95072901 0.890679 0
vt 0.69413602 0.890679 0
vt 0.69413602 0.824193 0
vt 0.95072901 0.824193 0
vt 0.53517801 0.96388298 0
vt 0.60006201 0.96388298 0
vt 0.60006201 0.97274101 0
vt 0.53517801 0.97274101 0
vt 0.63464701 0.896447 0
vt 0.63464701 0.96133101 0
vt 0.45810699 0.96026599 0
vt 0.45810699 0.896447 0
vt 0.87717903 0.00050000002 0
vt 0.959526 0.00050000002 0
vt 0.95817399 0.77245498 0
vt 0.87717903 0.77245498 0
vt 0.63633299 0.96614802 0
vt 0.63633299 0.901263 0
vt 0.64674503 0.901263 0
vt 0.64674503 0.96614802 0
vt 0.65078402 0.965083 0
vt 0.65078402 0.901263 0
vt 0.660667 0.901263 0
vt 0.660667 0.965083 0
vt 0.27024701 0.99505001 0
vt 0.27024701 0.93016499 0
vt 0.44678801 0.93016499 0
vt 0.44678801 0.993985 0
vt 0.68931901 0.94274801 0
vt 0.69006997 0.901263 0
vt 0.71000397 0.90164101 0
vt 0.70924902 0.94330001 0
vt 0.853926 0.94274801 0
vt 0.83398902 0.94302899 0
vt 0.83382702 0.90136999 0
vt 0.853764 0.901263 0
vt 0.78226101 0.942922 0
vt 0.76232702 0.94330001 0
vt 0.76157302 0.90164 0
vt 0.781506 0.901263 0
vt 0.88199598 0.942922 0
vt 0.88215798 0.901263 0
vt 0.90209502 0.90136999 0
vt 0.901932 0.94302899 0
vt 0.90733701 0.901263 0
vt 0.92727399 0.90251797 0
vt 0.92601699 0.92245102 0
vt 0.90608001 0.921197 0
vt 0.713404 0.94274801 0
vt 0.71415502 0.901263 0
vt 0.734088 0.90164101 0
vt 0.733334 0.94330001 0
vt 0.87531102 0.94461602 0
vt 0.87559199 0.96455199 0
vt 0.833933 0.964715 0
vt 0.83382601 0.94477701 0
vt 0.675246 0.965303 0
vt 0.67486799 0.94537002 0
vt 0.71652699 0.94461602 0
vt 0.716905 0.96454901 0
vt 0.78565699 0.94292903 0
vt 0.78586698 0.901263 0
vt 0.805843 0.90136999 0
vt 0.80563301 0.94303602 0
vt 0.41630501 0.85265303 0
vt 0.41475499 0.85088003 0
vt 0.41573 0.83538502 0
vt 0.41748899 0.83382702 0
vt 0.66523498 0.94274801 0
vt 0.665986 0.901263 0
vt 0.68591899 0.90164101 0
vt 0.68516499 0.94330001 0
vt 0.87800997 0.94274801 0
vt 0.85807401 0.94302899 0
vt 0.85791099 0.90136999 0
vt 0.87784803 0.901263 0
vt 0.75817603 0.942922 0
vt 0.73824298 0.94330001 0
vt 0.73748797 0.90164 0
vt 0.75742197 0.901263 0
vt 0.78094703 0.94461602 0
vt 0.822613 0.94482499 0
vt 0.82250601 0.96480101 0
vt 0.78083998 0.96459198 0
vt 0.88681298 0.817509 0
vt 0.88755202 0.77602398 0
vt 0.907525 0.77640098 0
vt 0.90678197 0.81805998 0
vt 0.769346 0.94461602 0
vt 0.76962698 0.96459103 0
vt 0.727961 0.96480101 0
vt 0.72785401 0.94482398 0
vt 0.94124699 0.81768298 0
vt 0.92127401 0.81805998 0
vt 0.92053097 0.77640098 0
vt 0.94050401 0.77602398 0
vt 0.80974197 0.94292903 0
vt 0.80995101 0.901263 0
vt 0.82992798 0.90136999 0
vt 0.82971799 0.94303602 0
vt 0.964553 0.81166202 0
vt 0.94461602 0.810408 0
vt 0.94587201 0.790474 0
vt 0.96580899 0.79172897 0
vt 0.93142098 0.901263 0
vt 0.95135802 0.90251797 0
vt 0.95010197 0.92245102 0
vt 0.93016499 0.921197 0
vt 0.88806897 0.94461602 0
vt 0.90800601 0.94586998 0
vt 0.90674901 0.96580398 0
vt 0.88681298 0.96454901 0
vt 0.98796803 0.64596701 0
vt 0.99343902 0.64596701 0
vt 0.99343902 0.71245301 0
vt 0.98796803 0.71245301 0
vt 0.524593 0.973517 0
vt 0.524593 0.97898799 0
vt 0.45810699 0.97898799 0
vt 0.45810699 0.973517 0

# 32 vertex normals
vn 0.0096482094 -0.0026290698 0
vn 0.00532836 -0.0084621897 0
vn 0.0053283498 0.0084621897 0
vn 0.0096482094 0.0026290698 0
vn 0 0 0.0099999998
vn 0 0 -0.0099999998
vn 0 -0.0099999998 0
vn 0 0.0099999998 0
vn 9.9999999e-09 0 -0.0099999998
vn -0.0099999998 0 0
vn 0.0099999998 0 0
vn -0.00062799 -5.0279999e-05 0.00998013
vn -0.00062799 -5.0279999e-05 0.0099801393
vn -0.0099786194 -0.00017823 -0.00062881998
vn 0.00062806997 5.0360002e-05 -0.00998013
vn 0.0099786101 0.00017824999 0.00062886998
vn 0.0099786194 0.00017824999 0.00062886998
vn 0.00019178999 -0.0099980803 -4.133e-05
vn -0.00062799 -5.0300001e-05 0.0099801393
vn -0.00062799 -5.0300001e-05 0.00998013
vn -0.0099786194 -0.00017823 -0.00062882993
vn 0.0099786101 0.00017824999 0.00062885997
vn 0.0099786194 0.00017824999 0.00062885997
vn 0.00333739 -0.0094252992 0.00015969999
vn -0.00062794995 -5.0289997e-05 0.0099801393
vn -0.00062799995 -5.0289997e-05 0.00998013
vn -0.0099786194 -0.00017823999 -0.00062884
vn 0.00062811997 5.0360002e-05 -0.00998013
vn 0.0099786101 0.00017826 0.00062886998
vn 0.0099786194 0.00017826 0.00062886998
vn 0.00019178999 -0.0099980701 -4.133e-05
vn 0.0099999998 0 -9e-08

# Mesh 'aws_TVCabinet_01_visualMesh' with 55 faces
g aws_TVCabinet_01_visualMesh
usemtl Material #27
f  1/1/1 2/2/1 3/3/1 4/4/1
f  5/5/2 6/6/2 2/7/2 1/8/2
f  7/9/3 8/10/3 9/11/3 10/12/3
f  9/13/4 8/14/4 4/4/4 3/3/4
f  8/15/5 1/16/5 4/17/5
f  2/18/6 9/19/6 3/20/6
f  11/21/7 12/22/7 6/6/7 5/5/7
f  13/23/8 7/9/8 10/12/8 14/24/8
f  12/25/9 14/26/9 10/27/9 6/28/9
f  7/29/5 13/30/5 11/31/5 5/32/5
f  13/33/10 14/34/10 12/35/10 11/36/10
f  15/37/6 16/38/6 17/39/6 18/40/6
f  19/41/5 20/42/5 21/43/5 22/44/5
f  17/45/11 19/46/11 22/47/11 18/48/11
f  15/49/10 21/50/10 20/51/10 16/52/10
f  18/53/7 22/54/7 21/55/7 15/56/7
f  19/57/8 17/58/8 16/59/8 20/60/8
f  23/61/5 24/62/5 25/63/5 26/64/5
f  27/65/11 25/66/11 24/67/11 28/68/11
f  29/69/5 30/70/5 31/71/5 32/72/5
f  33/73/6 34/74/6 35/75/6 36/76/6
f  36/77/11 31/78/11 30/79/11 33/80/11
f  37/81/6 38/82/6 39/83/6 40/84/6
f  40/85/11 41/86/11 42/87/11 37/88/11
f  43/89/10 44/90/10 45/91/10 46/92/10
f  44/93/9 43/94/9 47/95/9 48/96/9
f  49/97/10 50/98/10 51/99/10 52/100/10
f  53/101/10 54/102/10 55/103/10 56/104/10
f  57/105/11 58/106/11 59/107/11 60/108/11
f  56/109/5 55/110/5 58/111/5 57/112/5
f  61/113/12 62/114/13 63/115/12 64/116/13
f  61/117/14 65/118/14 66/119/14 62/120/14
f  65/121/15 67/122/15 68/123/15 66/124/15
f  64/125/16 63/126/17 68/127/17 67/128/17
f  62/129/18 66/130/18 68/131/18 63/132/18
f  69/133/19 70/134/19 71/135/19 72/136/20
f  69/137/21 73/138/21 74/139/21 70/140/21
f  73/141/15 75/142/15 76/143/15 74/144/15
f  72/145/22 71/146/23 76/147/23 75/148/23
f  77/149/24 78/150/24 79/151/24 80/152/24
f  81/153/25 82/154/25 83/155/25 84/156/25
f  81/157/14 85/158/14 86/159/14 82/160/14
f  85/161/15 87/162/15 88/163/15 86/164/15
f  84/165/17 83/166/16 88/167/17 87/168/17
f  89/169/26 90/170/26 91/171/26 92/172/26
f  89/173/27 93/174/27 94/175/27 90/176/27
f  93/177/28 95/178/28 96/179/28 94/180/28
f  92/181/29 91/182/29 96/183/29 95/184/30
f  70/185/18 74/186/18 76/187/18 71/188/31
f  90/189/18 94/190/18 96/191/18 91/192/18
f  82/193/18 86/194/18 88/195/18 83/196/31
f  6/28/6 10/27/6 9/19/6 2/18/6
f  7/29/5 5/32/5 1/16/5 8/15/5
f  38/197/11 29/198/11 32/199/11 39/200/11
f  34/201/32 23/202/32 26/203/32 35/204/32

