# File produced by Open Asset Import Library (http://www.assimp.sf.net)
# (assimp v5.0.639693989)

mtllib material.mtl

# 8 vertex positions
v  1.7320834 0.0020000001 -2.0059597
v  -1.7320834 0.0020000001 -2.0059597
v  -1.7320834 0.0020000001 2.0059597
v  1.7320834 0.0020000001 2.0059597
v  -1.7320834 0 2.0059597
v  1.7320834 0 2.0059597
v  1.7320834 0 -2.0059597
v  -1.7320834 0 -2.0059597

# 12 UV coordinates
vt 1.45013 1.592581 0
vt 0.025897 1.59208 0
vt 0.026306 -0.75240302 0
vt 1.450538 -0.75190002 0
vt 0.026102001 -0.78773397 0
vt 1.450333 -0.78723103 0
vt 1.479324 -0.75224 0
vt 1.478917 1.592241 0
vt 1.450335 1.627911 0
vt 0.026102001 1.627414 0
vt -0.0028890001 1.59242 0
vt -0.00248 -0.75206298 0

# 6 vertex normals
vn 0 0.0099999998 0
vn 0 0 0.0099999998
vn 0.0099999998 0 0
vn 0 0 -0.0099999998
vn -0.0099999998 0 0
vn 0 -0.0099999998 0

# Mesh 'aws_Carpet_01_visualMesh' with 12 faces
g aws_Carpet_01_visualMesh
usemtl Material #34
f  1/1/1 2/2/1 3/3/1
f  1/1/1 3/3/1 4/4/1
f  4/4/2 3/3/2 5/5/2
f  4/4/2 5/5/2 6/6/2
f  1/1/3 4/4/3 6/7/3
f  1/1/3 6/7/3 7/8/3
f  2/2/4 1/1/4 7/9/4
f  2/2/4 7/9/4 8/10/4
f  3/3/5 2/2/5 8/11/5
f  3/3/5 8/11/5 5/12/5
f  6/7/6 5/5/6 8/11/6
f  6/7/6 8/11/6 7/9/6

