# File produced by Open Asset Import Library (http://www.assimp.sf.net)
# (assimp v5.0.639693989)

mtllib material.mtl

# 78 vertex positions
v  5.2823291 0.2 4.3812442
v  -2.7365999 0.2 -3.2784369
v  5.3000011 0.2 -3.2853031
v  -2.7365999 0.2 4.5
v  8.9746075 0.166171 5.2746048
v  6.8253961 0.166171 5.2746048
v  6.8253961 0.166171 4.5
v  8.9746075 0.166171 4.5
v  8.9746075 0.166171 -2.6746101
v  6.8253961 0.166171 -2.6746101
v  6.5000701 0.2 -3.2116239
v  6.500071 0.2 4.3812442
v  -3.3950469 0.211619 4.9049101
v  -8.6049109 0.211619 4.9049101
v  -3.3950469 0.211619 -2.304914
v  -8.6049109 0.211619 -2.304914
v  -2.499999 -0.30368099 -3.2
v  4.8420868 -0.30368099 -5.5999999
v  4.8420868 -0.30368099 -3.2
v  -2.499999 -0.30368099 -5.5999999
v  -2.509356 0.34842399 -3.2028871
v  -9.2897615 0.34842399 -3.2028871
v  -9.2897615 0.34842399 5.591547
v  -2.509356 0.34842399 5.591547
v  4.8408709 0.34842399 -3.2028871
v  4.8408709 0.34842399 5.591547
v  9.2804499 0.34842399 -3.2028871
v  9.2804499 0.34842399 5.591547
v  -2.509356 0.073959 -3.2028871
v  4.8408709 0.073959 -3.2028871
v  -2.509356 0.073959 -5.5947618
v  4.8408709 0.073959 -5.5947618
v  9.3000011 0 -3.2116239
v  6.8253961 0 -2.6746101
v  6.500001 0 -3.2116239
v  8.9746075 0 -2.6746101
v  6.8253961 0 4.5
v  6.500001 0 4.3812442
v  9.3000011 0 5.5999999
v  6.8253961 0 5.2746048
v  8.9746075 0 5.2746048
v  6.500001 0 5.5999999
v  9.3000011 0 4.5
v  8.9746075 0 4.5
v  -9.3000011 0 5.5999999
v  -8.7765713 0 -2.4765739
v  -8.7765713 0 5.07657
v  -9.3000011 0 -3.211622
v  -3.223387 0 5.07657
v  -2.6999569 0 5.5999999
v  -3.223387 0 -2.4765739
v  -2.6999569 0 -3.211622
v  -8.7765713 0.212 5.07657
v  -8.7765713 0.212 -2.4765739
v  -3.223387 0.212 5.07657
v  -3.223387 0.212 -2.4765739
v  -8.6454372 0.212 4.945436
v  -8.6454372 0.21678799 -2.3454399
v  -3.354521 0.212 4.945436
v  -3.354521 0.212 -2.3454399
v  -8.6454372 0.211555 4.945436
v  -8.6454372 0.2156 -2.3454399
v  -8.6049109 0.158619 -2.304914
v  -8.6049109 0.158619 4.9049101
v  -3.354521 0.165848 4.945436
v  -3.3950469 0.158619 4.9049101
v  -3.3950469 0.158619 -2.304914
v  -3.354521 0.178674 -2.3454399
v  -2.6999569 0.243173 5.599999
v  -2.6999569 0.243173 -3.211622
v  4.8420868 0.256614 -3.2
v  -2.499999 0.256614 -3.2
v  -2.509356 0.35511699 -3.2028871
v  4.8408709 0.35511699 -3.2028871
v  5.2823291 0 4.3812442
v  5.2823291 0 5.5999999
v  5.2823291 0.2 5.5999999
v  -2.7365999 0.2 5.5999999

# 138 UV coordinates
vt 1.7631741 0.95976502 0
vt -0.59706402 0.225567 0
vt 1.7590361 0.224168 0
vt -0.59292501 0.96116197 0
vt 0.87370002 0.237692 0
vt 0.94144702 0.23880599 0
vt 0.94125301 0.314006 0
vt 0.87350601 0.31289199 0
vt 0.87170899 1.009418 0
vt 0.93945599 1.010529 0
vt 2.121531 0.22395299 0
vt 2.125675 0.959548 0
vt 0.78913498 0.237537 0
vt 0.96470797 0.237986 0
vt 0.78721499 0.98583901 0
vt 0.96278799 0.98628902 0
vt -0.26720801 0.62050802 0
vt 1.97956 0.85897499 0
vt 1.97956 0.62050802 0
vt -0.26720801 0.85897499 0
vt 0.29672599 1.003457 0
vt -0.28392401 1.003459 0
vt -0.283925 0.25033399 0
vt 0.296725 0.25033399 0
vt 0.92617399 1.003456 0
vt 0.92617399 0.25033399 0
vt 1.306363 1.003457 0
vt 1.306363 0.25033399 0
vt 0.467962 0.491797 0
vt 1.002398 0.49179599 0
vt 0.467962 0.66570997 0
vt 1.002398 0.66570997 0
vt 0.79009497 0.148265 0
vt 0.64762598 0.16699199 0
vt 0.62889302 0.148258 0
vt 0.77136099 0.166998 0
vt 0.086880997 0.037062999 0
vt 0.49993899 0.037080999 0
vt 0.49993801 0.055814002 0
vt 0.068145998 0.055794999 0
vt 0.69978899 0.100799 0
vt 0.84216201 0.120248 0
vt 0.71842802 0.119626 0
vt 0.86098897 0.101609 0
vt 0.49993899 0.081358001 0
vt 0.56326699 0.081361003 0
vt 0.54453301 0.100093 0
vt 0.49993801 0.100092 0
vt 0.64762503 0.176559 0
vt 0.77135998 0.17656501 0
vt 0.086880997 0.027496001 0
vt 0.49993899 0.027513999 0
vt 0.71837997 0.12919299 0
vt 0.84211397 0.129815 0
vt 0.54453301 0.10966 0
vt 0.49993801 0.109658 0
vt 0.56326699 0.055817001 0
vt 0.54453403 0.037082002 0
vt 0.54453498 0.027516 0
vt 0.086879 0.100075 0
vt 0.068145998 0.081340998 0
vt 0.086879 0.109642 0
vt 0.94544798 0.120422 0
vt 0.481626 0.090361997 0
vt 0.91538799 0.090361997 0
vt 0.45156699 0.120422 0
vt 0.227541 0.115634 0
vt 0.57679701 0.085550003 0
vt 0.60688102 0.115634 0
vt 0.257626 0.085550003 0
vt 0.56326699 0.135185 0
vt 0.099445 0.165245 0
vt 0.069385998 0.135185 0
vt 0.533207 0.165245 0
vt 0.227541 0.144256 0
vt 0.57679701 0.17434099 0
vt 0.257626 0.17434099 0
vt 0.60688102 0.144256 0
vt 0.91538799 0.078186996 0
vt 0.481626 0.078186996 0
vt 0.57679701 0.073365003 0
vt 0.257626 0.073365003 0
vt 0.099445 0.17742001 0
vt 0.533207 0.17742001 0
vt 0.257626 0.186525 0
vt 0.57679701 0.186525 0
vt 0.90785801 0.070657 0
vt 0.48915699 0.070657 0
vt 0.56926 0.065828003 0
vt 0.265163 0.065826997 0
vt 0.106976 0.18495101 0
vt 0.52567703 0.18495101 0
vt 0.265163 0.19406299 0
vt 0.56926 0.19406299 0
vt 0.90793198 0.063349999 0
vt 0.48923099 0.063349999 0
vt 0.491615 0.056083001 0
vt 0.90075201 0.055996999 0
vt 0.56929898 0.060520999 0
vt 0.26756799 0.055252999 0
vt 0.56408399 0.055202998 0
vt 0.26520199 0.060520001 0
vt 0.525603 0.192257 0
vt 0.114082 0.19960999 0
vt 0.106902 0.192257 0
vt 0.52321899 0.199524 0
vt 0.56922102 0.19937 0
vt 0.27033901 0.204688 0
vt 0.26512399 0.19937 0
vt 0.56685501 0.20463701 0
vt 0.90082198 0.048857 0
vt 0.49168599 0.048943002 0
vt 0.56412101 0.050028 0
vt 0.26760501 0.050078001 0
vt 0.114012 0.20675001 0
vt 0.523148 0.206664 0
vt 0.270302 0.20986301 0
vt 0.566818 0.209811 0
vt 1.9608209 0.64532101 0
vt -0.25827199 0.64532101 0
vt -0.20795099 1.4876029 0
vt 1.747062 1.4876 0
vt 0.81576598 0.040405001 0
vt 0.74740499 0.104516 0
vt 0.75261801 0.035626002 0
vt 0.81055301 0.109295 0
vt 0.81663501 0.028922999 0
vt 0.75348598 0.024145 0
vt -0.268951 0.68047202 0
vt 2.058728 0.785649 0
vt -0.26835001 0.78702998 0
vt 2.058126 0.67909098 0
vt 0.122725 0.095393002 0
vt 0.86512101 0.093300998 0
vt 0.86515802 0.123798 0
vt 0.12276 0.125888 0
vt 0.82724798 0.041274 0
vt 0.82203501 0.110167 0

# 8 vertex normals
vn 0 -1 0
vn 0 1 0
vn 0 0 1
vn 1 0 0
vn 0 0 -1
vn -1 0 0
vn -1 0.00034599999 0
vn -1 0.00034999999 0

# Mesh 'aws_RoomCeiling_01_visualMesh' with 20 faces
g aws_RoomCeiling_01_visualMesh
usemtl Material #30
f  1/1/1 2/2/1 3/3/1
f  2/2/1 1/1/1 4/4/1
f  5/5/1 6/6/1 7/7/1
f  5/5/1 7/7/1 8/8/1
f  7/7/1 9/9/1 8/8/1
f  9/9/1 7/7/1 10/10/1
f  1/1/1 11/11/1 12/12/1
f  11/11/1 1/1/1 3/3/1
f  13/13/1 14/14/1 15/15/1
f  14/14/1 16/16/1 15/15/1
f  17/17/1 18/18/1 19/19/1
f  18/18/1 17/17/1 20/20/1
f  21/21/2 22/22/2 23/23/2
f  21/21/2 23/23/2 24/24/2
f  25/25/2 21/21/2 24/24/2
f  25/25/2 24/24/2 26/26/2
f  25/25/2 26/26/2 27/27/2
f  27/27/2 26/26/2 28/28/2
f  29/29/2 30/30/2 31/31/2
f  32/32/2 31/31/2 30/30/2

# Mesh 'aws_RoomCeiling_01_visualMesh' with 88 faces
g aws_RoomCeiling_01_visualMesh
usemtl _01 - Default
f  33/33/1 34/34/1 35/35/1
f  34/34/1 33/33/1 36/36/1
f  34/37/1 37/38/1 38/39/1
f  38/39/1 35/40/1 34/37/1
f  39/41/1 40/42/1 41/43/1
f  40/42/1 39/41/1 42/44/1
f  43/45/1 39/46/1 41/47/1
f  43/45/1 41/47/1 44/48/1
f  34/34/3 36/36/3 10/49/3
f  9/50/3 10/49/3 36/36/3
f  10/51/4 7/52/4 37/38/4
f  10/51/4 37/38/4 34/37/4
f  41/43/5 40/42/5 5/53/5
f  6/54/5 5/53/5 40/42/5
f  5/55/6 8/56/6 44/48/6
f  5/55/6 44/48/6 41/47/6
f  42/57/1 38/39/1 40/58/1
f  40/58/1 38/39/1 37/38/1
f  7/52/4 6/59/4 40/58/4
f  7/52/4 40/58/4 37/38/4
f  44/48/1 36/60/1 43/45/1
f  33/61/1 43/45/1 36/60/1
f  8/56/6 9/62/6 36/60/6
f  8/56/6 36/60/6 44/48/6
f  45/63/1 46/64/1 47/65/1
f  46/64/1 45/63/1 48/66/1
f  45/67/1 49/68/1 50/69/1
f  49/68/1 45/67/1 47/70/1
f  50/71/1 51/72/1 52/73/1
f  51/72/1 50/71/1 49/74/1
f  48/75/1 51/76/1 46/77/1
f  51/76/1 48/75/1 52/78/1
f  47/65/4 46/64/4 53/79/4
f  54/80/4 53/79/4 46/64/4
f  49/68/5 47/70/5 55/81/5
f  53/82/5 55/81/5 47/70/5
f  51/72/6 49/74/6 56/83/6
f  55/84/6 56/83/6 49/74/6
f  46/77/3 51/76/3 54/85/3
f  56/86/3 54/85/3 51/76/3
f  53/79/1 54/80/1 57/87/1
f  57/87/1 54/80/1 58/88/1
f  55/81/1 53/82/1 59/89/1
f  59/89/1 53/82/1 57/90/1
f  55/84/1 60/91/1 56/83/1
f  60/91/1 55/84/1 59/92/1
f  56/86/1 58/93/1 54/85/1
f  58/93/1 56/86/1 60/94/1
f  61/95/1 62/96/1 63/97/1
f  61/95/1 63/97/1 64/98/1
f  65/99/1 64/100/1 66/101/1
f  64/100/1 65/99/1 61/102/1
f  65/103/1 67/104/1 68/105/1
f  67/104/1 65/103/1 66/106/1
f  68/107/1 63/108/1 62/109/1
f  63/108/1 68/107/1 67/110/1
f  64/98/4 63/97/4 14/111/4
f  16/112/4 14/111/4 63/97/4
f  66/101/5 64/100/5 13/113/5
f  14/114/5 13/113/5 64/100/5
f  67/104/6 66/106/6 15/115/6
f  13/116/6 15/115/6 66/106/6
f  63/108/3 67/110/3 16/117/3
f  15/118/3 16/117/3 67/110/3
f  69/71/4 52/73/4 70/73/4
f  52/73/4 69/71/4 50/71/4
f  71/119/3 72/120/3 17/120/3
f  71/119/3 17/120/3 19/119/3
f  73/121/5 74/122/5 30/122/5
f  73/121/5 30/122/5 29/121/5
f  75/123/1 42/124/1 76/125/1
f  42/124/1 75/123/1 38/126/1
f  1/127/6 76/125/6 77/128/6
f  76/125/6 1/127/6 75/123/6
f  4/129/1 77/130/1 78/131/1
f  77/130/1 4/129/1 1/132/1
f  12/133/7 11/134/7 35/135/7
f  12/133/8 35/135/8 38/136/8
f  1/137/5 38/126/5 75/123/5
f  38/126/5 1/137/5 12/138/5
f  58/88/6 61/95/6 57/87/6
f  61/95/6 58/88/6 62/96/6
f  57/90/3 65/99/3 59/89/3
f  65/99/3 57/90/3 61/102/3
f  59/92/4 68/105/4 60/91/4
f  68/105/4 59/92/4 65/103/4
f  60/94/5 62/109/5 58/93/5
f  62/109/5 60/94/5 68/107/5

