# File produced by Open Asset Import Library (http://www.assimp.sf.net)
# (assimp v5.0.639693989)

mtllib material.mtl

# 48 vertex positions
v  -0.24285793 0.68941855 -0.01071218
v  0.24285787 0.00234707 -0.01071192
v  -0.24285787 0.0023469899 -0.01071196
v  0.24285781 0.68941867 -0.010712139
v  0.24285781 0.69176561 -0.0083651794
v  -0.24285793 0.69176561 -0.0083652195
v  -0.24285793 0.69176561 0.0083649
v  0.24285781 0.69176561 0.0083649494
v  -0.2452049 0.68941855 0.0083649
v  -0.24520481 0.0023469899 -0.0083650099
v  -0.24520481 0.0023469899 0.0083651198
v  -0.2452049 0.68941855 -0.0083652195
v  -0.24285787 4e-08 0.0083651198
v  0.24285787 1.0999999e-07 -0.0083649699
v  0.24285787 1.0999999e-07 0.0083651599
v  -0.24285787 4e-08 -0.0083650099
v  0.24520475 0.68941867 0.0083649494
v  0.24520485 0.00234707 -0.0083649699
v  0.24520475 0.68941867 -0.0083651794
v  0.24520485 0.00234707 0.0083651599
v  -0.24354534 0.69010597 0.010711859
v  0.23485912 0.68141997 0.0107119
v  0.24354522 0.69010609 0.0107119
v  -0.23485927 0.68141991 0.010711859
v  -0.24354528 0.00165958 0.01071207
v  -0.2348592 0.01034565 0.01071207
v  0.24354528 0.00165966 0.010712121
v  0.23485921 0.010345729 0.01071211
v  -0.23085277 0.6797604 0.0083649093
v  0.23085262 0.67976052 0.00359209
v  0.23085262 0.67976052 0.0083649494
v  -0.23085277 0.6797604 0.0035920499
v  -0.23319964 0.014352149 0.0035922597
v  -0.2331997 0.6774134 0.0035920499
v  -0.2331997 0.6774134 0.0083649093
v  -0.23319964 0.014352149 0.0083651198
v  0.23085271 0.01200527 0.0035923
v  -0.23085269 0.0120052 0.0035922597
v  -0.23085269 0.0120052 0.0083651198
v  0.23085271 0.01200527 0.0083651599
v  0.2331996 0.67741346 0.0083649494
v  0.23319964 0.014352229 0.0035923
v  0.23319964 0.014352229 0.0083651599
v  0.2331996 0.67741346 0.0035921
v  0.23085262 0.67741346 0.00124514
v  -0.23085277 0.6774134 0.0012450999
v  -0.23085269 0.014352149 0.0012453099
v  0.23085271 0.014352229 0.00124535

# 88 UV coordinates
vt 0.50756001 0.70205998 0
vt 0.035082001 0.035735998 0
vt 0.50655901 0.035023 0
vt 0.036086001 0.70277297 0
vt 0.052951999 0.72920901 0
vt 0.52475798 0.72921002 0
vt 0.524625 0.74537098 0
vt 0.05308 0.74537098 0
vt 0.065342002 0.95619297 0
vt 0.73259002 0.93994498 0
vt 0.73259002 0.95619297 0
vt 0.065342002 0.93994403 0
vt 0.52463001 0.81309998 0
vt 0.052953001 0.829261 0
vt 0.053086001 0.81309998 0
vt 0.52475798 0.82926297 0
vt 0.065341003 0.90005702 0
vt 0.73259002 0.91630501 0
vt 0.065342002 0.91630501 0
vt 0.73259002 0.90005702 0
vt 0.52546901 0.74800402 0
vt 0.060798001 0.75644398 0
vt 0.052228998 0.74800402 0
vt 0.51688802 0.75645202 0
vt 0.733257 0.958987 0
vt 0.073108003 0.96742302 0
vt 0.064673997 0.958987 0
vt 0.72482002 0.96742702 0
vt 0.052242 0.810467 0
vt 0.516913 0.80202597 0
vt 0.52548099 0.81046802 0
vt 0.060823001 0.802019 0
vt 0.064672999 0.89726299 0
vt 0.72482002 0.88882399 0
vt 0.733257 0.89726299 0
vt 0.073106997 0.88882899 0
vt 0.51324499 0.75970101 0
vt 0.064825997 0.76433998 0
vt 0.064433999 0.75968999 0
vt 0.51284897 0.76435202 0
vt 0.720927 0.97486198 0
vt 0.076996997 0.97484899 0
vt 0.076996997 0.97021401 0
vt 0.72092801 0.97022402 0
vt 0.064861 0.794119 0
vt 0.51288497 0.79413003 0
vt 0.51327699 0.79878098 0
vt 0.064465001 0.79877001 0
vt 0.076995999 0.88604099 0
vt 0.720927 0.88138902 0
vt 0.72092801 0.88602698 0
vt 0.076995 0.88140798 0
vt 0.035693001 0.70581001 0
vt 0.033050999 0.70317602 0
vt 0.51059598 0.70245302 0
vt 0.50796199 0.70509499 0
vt 0.032044999 0.035342999 0
vt 0.034680001 0.032701001 0
vt 0.50695199 0.031985998 0
vt 0.50959498 0.034619998 0
vt 0.049984999 0.745722 0
vt 0.52772099 0.74572498 0
vt 0.049991 0.81274599 0
vt 0.52772498 0.81274998 0
vt 0.061183002 0.76075202 0
vt 0.51649702 0.76076603 0
vt 0.51652902 0.797719 0
vt 0.061214 0.79770601 0
vt 0.064506002 0.76747102 0
vt 0.061923999 0.76520801 0
vt 0.515751 0.76522201 0
vt 0.51316899 0.76748198 0
vt 0.51320601 0.79100001 0
vt 0.51578802 0.793262 0
vt 0.061958998 0.79325002 0
vt 0.064542003 0.79098898 0
vt 0.52801502 0.729303 0
vt 0.049695998 0.72930098 0
vt 0.52801299 0.829171 0
vt 0.049695998 0.82916802 0
vt 0.720927 0.97808599 0
vt 0.076995999 0.978073 0
vt 0.076995 0.87818599 0
vt 0.72092599 0.87816501 0
vt 0.0041490002 0.99498898 0
vt 0.992984 0.0025140001 0
vt 0.992984 0.99498701 0
vt 0.0041490002 0.0025160001 0

# 42 vertex normals
vn 0 0 -0.0099999998
vn 0 0.0099999998 0
vn -0.0099999998 0 0
vn 0 -0.0099999998 0
vn 0.0099999998 0 0
vn 0 0 0.0099999998
vn 0.0057735001 0.0057735001 -0.0057735001
vn -0.0057735001 0.0057735001 -0.0057735001
vn 0.0057735001 -0.0057735001 -0.0057735001
vn -0.0057735001 -0.0057735001 -0.0057735001
vn 0.0070292 0.0070292 0.00108662
vn 0.0067859795 0.0067859897 0.00281084
vn -0.0070292 0.0070292 0.00108662
vn -0.0067859795 0.0067859897 0.00281084
vn 0.0070292 -0.0070292 0.00108662
vn 0.0067859897 -0.0067859795 0.00281084
vn -0.0070292 -0.0070292 0.00108662
vn -0.0067859897 -0.0067859795 0.00281084
vn -0.0035740701 -0.0035740598 0.0086285593
vn 0.0035740701 -0.0035740598 0.0086285593
vn 0.0035740701 0.0035740701 0.0086285593
vn -0.0035740701 0.0035740701 0.0086285593
vn -0.0057735001 -0.0057735001 0.0057735001
vn 0.0057735001 -0.0057735001 0.0057735001
vn 0.0057735001 0.0057735001 0.0057735001
vn -0.0057735001 0.0057735001 0.0057735001
vn 0.0070710699 0 -0.0070710699
vn 0 -0.0070710699 -0.0070710699
vn -0.0070710699 0 -0.0070710699
vn 0 0.0070710699 -0.0070710699
vn 0 0.0081649702 0.0057735001
vn -0.0081649702 0 0.0057735001
vn 0 -0.0081649702 0.0057735001
vn 0.0081649702 0 0.0057735001
vn -0.0070710699 0.0070710699 0
vn 0.0070710699 0.0070710699 0
vn -0.0070710699 -0.0070710699 -0
vn 0.0070710699 -0.0070710699 0
vn 0 -0.0070710699 0.0070710699
vn 0.0070710699 0 0.0070710699
vn 0 0.0070710699 0.0070710699
vn -0.0070710699 0 0.0070710699

# Mesh 'aws_PortraitC_01_visualMesh' with 90 faces
g aws_PortraitC_01_visualMesh
usemtl Material #25
f  1/1/1 2/2/1 3/3/1
f  2/2/1 1/1/1 4/4/1
f  5/5/2 6/6/2 7/7/2
f  5/5/2 7/7/2 8/8/2
f  9/9/3 10/10/3 11/11/3
f  10/10/3 9/9/3 12/12/3
f  13/13/4 14/14/4 15/15/4
f  14/14/4 13/13/4 16/16/4
f  17/17/5 18/18/5 19/19/5
f  18/18/5 17/17/5 20/20/5
f  21/21/6 22/22/6 23/23/6
f  22/22/6 21/21/6 24/24/6
f  25/25/6 24/26/6 21/27/6
f  24/26/6 25/25/6 26/28/6
f  27/29/6 26/30/6 25/31/6
f  26/30/6 27/29/6 28/32/6
f  23/33/6 28/34/6 27/35/6
f  28/34/6 23/33/6 22/36/6
f  29/37/4 30/38/4 31/39/4
f  30/38/4 29/37/4 32/40/4
f  33/41/5 34/42/5 35/43/5
f  35/43/5 36/44/5 33/41/5
f  37/45/2 38/46/2 39/47/2
f  37/45/2 39/47/2 40/48/2
f  41/49/3 42/50/3 43/51/3
f  42/50/3 41/49/3 44/52/3
f  5/53/7 19/54/7 4/4/7
f  1/1/8 12/55/8 6/56/8
f  18/57/9 14/58/9 2/2/9
f  3/3/10 16/59/10 10/60/10
f  8/8/11 23/23/12 17/61/11
f  9/62/13 21/21/14 7/7/13
f  20/63/15 27/29/16 15/15/15
f  13/13/17 25/31/18 11/64/17
f  22/22/19 31/39/19 41/65/19
f  24/24/20 35/66/20 29/37/20
f  26/30/21 39/47/21 36/67/21
f  28/32/22 43/68/22 40/48/22
f  30/38/23 45/69/23 44/70/23
f  34/71/24 46/72/24 32/40/24
f  38/46/25 47/73/25 33/74/25
f  42/75/26 48/76/26 37/45/26
f  19/54/27 2/2/27 4/4/27
f  2/2/27 19/54/27 18/57/27
f  16/59/28 2/2/28 14/58/28
f  2/2/28 16/59/28 3/3/28
f  1/1/29 10/60/29 12/55/29
f  10/60/29 1/1/29 3/3/29
f  6/56/30 4/4/30 1/1/30
f  4/4/30 6/56/30 5/53/30
f  21/21/31 8/8/31 7/7/31
f  8/8/31 21/21/31 23/23/31
f  11/11/32 21/27/32 9/9/32
f  25/25/32 21/27/32 11/11/32
f  13/13/33 15/15/33 25/31/33
f  27/29/33 25/31/33 15/15/33
f  23/33/34 20/20/34 17/17/34
f  20/20/34 23/33/34 27/35/34
f  12/77/35 7/7/13 6/6/35
f  7/7/13 12/77/35 9/62/13
f  5/5/36 8/8/11 19/78/36
f  19/78/36 8/8/11 17/61/11
f  11/64/17 16/16/37 13/13/17
f  16/16/37 11/64/17 10/79/37
f  15/15/15 14/14/38 20/63/15
f  20/63/15 14/14/38 18/80/38
f  22/22/33 24/24/33 31/39/33
f  31/39/33 24/24/33 29/37/33
f  24/26/34 26/28/34 35/43/34
f  35/43/34 26/28/34 36/44/34
f  26/30/31 40/48/31 39/47/31
f  40/48/31 26/30/31 28/32/31
f  28/34/32 41/49/32 43/51/32
f  41/49/32 28/34/32 22/36/32
f  32/40/39 45/69/39 30/38/39
f  45/69/39 32/40/39 46/72/39
f  34/42/40 47/81/40 46/82/40
f  47/81/40 34/42/40 33/41/40
f  38/46/41 48/76/41 47/73/41
f  48/76/41 38/46/41 37/45/41
f  45/83/42 48/84/42 44/52/42
f  44/52/42 48/84/42 42/50/42
f  31/39/37 44/70/37 41/65/37
f  44/70/37 31/39/37 30/38/37
f  35/66/38 34/71/38 29/37/38
f  29/37/38 34/71/38 32/40/38
f  33/74/36 36/67/36 38/46/36
f  38/46/36 36/67/36 39/47/36
f  37/45/35 43/68/35 42/75/35
f  43/68/35 37/45/35 40/48/35

# Mesh 'aws_PortraitC_01_visualMesh' with 2 faces
g aws_PortraitC_01_visualMesh
usemtl Material #26
f  46/85/6 48/86/6 45/87/6
f  48/86/6 46/85/6 47/88/6

