# File produced by Open Asset Import Library (http://www.assimp.sf.net)
# (assimp v5.0.639693989)

mtllib material.mtl

# 97 vertex positions
v  -0.024999 2.55 -0.477011
v  -0.024999 0.1 -0.427012
v  -0.024999 2.5 -0.427012
v  -0.024999 0.050000001 -0.477011
v  -0.024999 0.1 0.57298797
v  -0.024999 2.55 0.62298799
v  -0.024999 0.050000001 0.62298799
v  -0.024999 2.5 0.57298797
v  0.025002001 2.55 -0.477011
v  0.025002001 0.1 -0.427012
v  0.025002001 0.050000001 -0.477011
v  0.025002001 2.5 -0.427012
v  0.025002001 0.1 0.57298797
v  0.025002001 2.55 0.62298799
v  0.025002001 2.5 0.57298797
v  0.025002001 0.050000001 0.62298799
v  -0.050000001 0.050000001 -0.477622
v  -0.050000001 0.050000001 0.62316
v  0.049998999 0.050000001 -0.477622
v  0.049998999 0.050000001 0.62316
v  -0.050000001 0 -0.477622
v  -0.050000001 0 0.62316
v  0.049998999 0 0.62316
v  0.049998999 0 -0.477622
v  0.049998999 2.55 -0.47763401
v  0.049998999 2.55 0.62188601
v  -0.050000001 2.55 0.62188601
v  -0.050000001 2.55 -0.47763401
v  -0.050000001 2.5999999 0.62188601
v  -0.050000001 2.5999999 -0.47763401
v  0.049998999 2.5999999 0.62188601
v  0.049998999 2.5999999 -0.47763401
v  0.012501 1.708336 0.265861
v  0.012501 2.5181899 0.265861
v  -0.012499 2.5181899 0.265861
v  -0.012499 1.708336 0.265861
v  0.012501 2.5181899 0.24086
v  -0.012499 1.708336 0.24086
v  -0.012499 2.5181899 0.24086
v  0.012501 1.708336 0.24086
v  0.012501 1.708336 -0.092109002
v  -0.012499 1.708336 -0.092109002
v  0.012501 2.5181899 -0.092109002
v  -0.012499 2.5181899 -0.092109002
v  0.012501 2.5181899 -0.11711
v  -0.012499 1.708336 -0.11711
v  -0.012499 2.5181899 -0.11711
v  0.012501 1.708336 -0.11711
v  0.012501 1.708336 -0.44979501
v  -0.012499 1.708336 -0.44979501
v  0.012501 1.683336 -0.44979501
v  0.012501 1.683336 -0.11711
v  -0.012499 1.683336 -0.11711
v  -0.012499 1.683336 -0.44979501
v  -0.012499 0.78102201 -0.11711
v  0.012501 0.78102201 -0.11711
v  0.012501 0.78102201 -0.44979501
v  -0.012499 0.78102201 -0.44979501
v  0.012501 0.75602198 -0.44979501
v  0.012501 0.75602198 -0.11711
v  -0.012499 0.75602198 -0.11711
v  -0.012499 0.75602198 -0.44979501
v  -0.012499 0.085495003 -0.11711
v  0.012501 0.085495003 -0.11711
v  0.012501 0.085495003 -0.092109002
v  0.012501 0.75602102 -0.092109002
v  -0.012499 0.75602102 -0.092109002
v  -0.012499 0.085495003 -0.092109002
v  0.012501 0.75602198 0.24086
v  -0.012499 0.75602198 0.24086
v  -0.012499 0.085495003 0.24086
v  0.012501 0.085495003 0.24086
v  0.012501 0.085495003 0.265861
v  0.012501 0.75602198 0.265861
v  -0.012499 0.75602198 0.265861
v  -0.012499 0.085495003 0.265861
v  0.012501 0.75602198 0.58925301
v  -0.012499 0.75602198 0.58925301
v  0.012501 0.78102201 0.58925301
v  0.012501 0.78102201 0.265861
v  -0.012499 0.78102201 0.265861
v  -0.012499 0.78102201 0.58925301
v  0.012501 1.683336 0.265861
v  -0.012499 1.683336 0.265861
v  0.012501 1.683336 0.58925301
v  -0.012499 1.683336 0.58925301
v  0.012501 1.708336 0.58925301
v  -0.012499 1.708336 0.58925301
v  0.012501 1.683336 0.24086
v  -0.012499 0.78102201 0.24086
v  -0.012499 1.683336 0.24086
v  0.012501 0.78102201 0.24086
v  0.012501 0.78102201 -0.092109002
v  -0.012499 0.78102201 -0.092109002
v  0.012501 1.683336 -0.092109002
v  -0.012499 1.683336 -0.092109002
v  -0.024999 0.047184002 0.57298797

# 194 UV coordinates
vt -2.2180319 0.42429301 0
vt 3.3119431 0.53710902 0
vt -2.1051331 0.53710902 0
vt 3.4247611 0.42429301 0
vt 2.9341769 0.55942202 0
vt 0.56424302 0.44652799 0
vt 2.8213561 0.44652799 0
vt 3.8014011 0.348703 0
vt -1.7285061 0.46160099 0
vt -1.841406 0.34870201 0
vt 3.6885819 0.461602 0
vt 0.34968999 0.53840601 0
vt 2.719671 0.42559001 0
vt 2.6068521 0.53840601 0
vt 0.236871 0.42559001 0
vt -2.2180319 0.31139401 0
vt 3.3119431 0.19857299 0
vt 3.4247611 0.31139401 0
vt -2.1051331 0.19857299 0
vt 0.56416601 0.785142 0
vt 2.9341769 0.672243 0
vt 2.8213561 0.785142 0
vt 3.8014011 0.23588701 0
vt -1.7285061 0.122982 0
vt 3.6885819 0.122983 0
vt -1.841406 0.23588599 0
vt 2.719671 0.312691 0
vt 0.236871 0.312691 0
vt 0.34968999 0.199874 0
vt 2.6068521 0.199874 0
vt -2.1051331 0.65001303 0
vt 3.3119431 0.65001303 0
vt 0.56424302 0.333702 0
vt 2.8213561 0.333702 0
vt 3.6885819 0.57442302 0
vt -1.7285061 0.574422 0
vt 2.6068521 0.65130502 0
vt 0.34968999 0.65130401 0
vt 0.062456999 0.22279599 0
vt 0.062458001 0.25340801 0
vt 0.059673999 0.22279599 0
vt 0.059675001 0.253409 0
vt 0.063847996 0.22279499 0
vt 0.063849002 0.25340801 0
vt 0.062458999 0.25479901 0
vt 0.059675999 0.25480101 0
vt 0.058284 0.253409 0
vt 0.058281999 0.22279701 0
vt -1.510731 0.41543201 0
vt 1.166438 0.41543299 0
vt 1.166438 0.65881997 0
vt -1.510731 0.65881997 0
vt 1.16653 0.78055602 0
vt -1.510731 0.78055602 0
vt 1.288178 0.41543299 0
vt 1.288178 0.65881997 0
vt -1.510731 0.29378101 0
vt 1.16653 0.293782 0
vt 2.2827501 0.39854601 0
vt 0.45487899 0.39854601 0
vt 0.45471299 0.34213799 0
vt 2.282671 0.34205699 0
vt 0.45487899 0.455037 0
vt 2.2829099 0.51124299 0
vt 0.454956 0.51148599 0
vt 2.2828319 0.45487401 0
vt 1.123301 0.69284803 0
vt 0.37168401 0.69284803 0
vt 0.37168401 0.63668102 0
vt 1.1232181 0.63651699 0
vt 1.524675 0.44317299 0
vt 3.3526731 0.44317299 0
vt 3.3525901 0.499623 0
vt 1.524675 0.499623 0
vt 3.3526731 0.38680401 0
vt 1.5248361 0.33035201 0
vt 3.352751 0.33035201 0
vt 1.524754 0.38680401 0
vt 2.9046211 0.57402098 0
vt 2.153708 0.57402098 0
vt 2.153708 0.51765698 0
vt 2.9046211 0.51765698 0
vt 2.153708 0.63046801 0
vt 2.9046211 0.63046801 0
vt 2.9046211 0.68691599 0
vt 2.153708 0.68691599 0
vt 2.9243531 0.509942 0
vt 0.88784802 0.45336801 0
vt 2.9244351 0.453531 0
vt 0.88776499 0.509942 0
vt 0.90672898 0.288598 0
vt 0.155848 0.288598 0
vt 0.155687 0.23218501 0
vt 0.90664703 0.23210201 0
vt 0.15601 0.34500599 0
vt 0.90688998 0.34492299 0
vt 0.90697199 0.40136999 0
vt 0.15601 0.40145299 0
vt 1.385896 0.45833999 0
vt 2.899281 0.51479298 0
vt 1.385813 0.514709 0
vt 2.899359 0.458341 0
vt 2.899519 0.401889 0
vt 1.386052 0.40188801 0
vt 1.386134 0.345438 0
vt 2.8996019 0.34551901 0
vt 1.049996 0.302398 0
vt 1.801517 0.302481 0
vt 1.801517 0.35884801 0
vt 1.049915 0.35884801 0
vt 3.0568931 0.38371599 0
vt 1.5434639 0.32710299 0
vt 3.0569711 0.327346 0
vt 1.5434639 0.38355201 0
vt 1.5433869 0.44000101 0
vt 3.0568149 0.44016501 0
vt 3.0568149 0.49653101 0
vt 1.543304 0.49644801 0
vt 1.246033 0.68697602 0
vt 1.975971 0.68697602 0
vt 1.975971 0.74342299 0
vt 1.246033 0.74342299 0
vt 1.975971 0.63052601 0
vt 1.246033 0.63052601 0
vt 1.246033 0.57415903 0
vt 1.975971 0.57415903 0
vt 1.3248169 0.65420002 0
vt -0.71180397 0.65420002 0
vt -0.71163899 0.59775198 0
vt 1.324981 0.59775198 0
vt -1.395305 0.66594899 0
vt -0.66536999 0.66594899 0
vt -0.66536999 0.722395 0
vt -1.395305 0.722395 0
vt -0.66536999 0.60949898 0
vt -1.395305 0.60949898 0
vt -1.395305 0.553132 0
vt -0.66536999 0.553132 0
vt -0.71188402 0.71056801 0
vt 1.3247349 0.76709902 0
vt -0.71188402 0.76701701 0
vt 1.3247349 0.71065003 0
vt 1.801679 0.24591 0
vt 1.050158 0.24591 0
vt 1.050158 0.18949901 0
vt 1.801759 0.18966 0
vt 0.88768202 0.56626898 0
vt 2.9243531 0.56635201 0
vt 2.9242711 0.62288201 0
vt 0.88760501 0.622639 0
vt 0.37184399 0.74949902 0
vt 1.123379 0.74941897 0
vt 1.123379 0.80587101 0
vt 0.37184399 0.80587101 0
vt 2.9245181 0.39708099 0
vt 0.88784802 0.396999 0
vt 1.246033 0.51771301 0
vt 1.975971 0.51771301 0
vt -1.395305 0.496685 0
vt -0.66536999 0.496685 0
vt 1.123135 0.58006901 0
vt 0.37152299 0.58031201 0
vt 1.17967 0.63627499 0
vt 1.179505 0.57982498 0
vt 1.050319 0.13304999 0
vt 1.801841 0.13321 0
vt 0.90656698 0.17573801 0
vt 0.155605 0.17573801 0
vt 0.31523201 0.69284803 0
vt 0.31547499 0.74974298 0
vt 0.31523201 0.63692403 0
vt 0.31507099 0.58047402 0
vt 2.9046211 0.46121001 0
vt 2.153708 0.46121001 0
vt 3.352751 0.273902 0
vt 1.5248361 0.273902 0
vt 0.99370903 0.24591 0
vt 0.99354702 0.30223599 0
vt 0.99370903 0.189336 0
vt 0.99387002 0.13297001 0
vt 1.38573 0.57115901 0
vt 2.8991981 0.57115901 0
vt 3.0567329 0.55298102 0
vt 1.543304 0.55289799 0
vt 1.8581281 0.189823 0
vt 1.85829 0.133376 0
vt 1.8581281 0.24591 0
vt 1.8578839 0.302641 0
vt 1.17967 0.69284803 0
vt 1.179831 0.74917603 0
vt 0.45471299 0.28568801 0
vt 2.282671 0.28560799 0
vt -0.71163899 0.54130298 0
vt 1.324981 0.54130298 0

# 7 vertex normals
vn -1 0 0
vn 1 0 0
vn 0 0 -1
vn 0 0 1
vn 0 1 0
vn 0 -1 0
vn 0 -1 3.0000001e-06

# Mesh 'aws_FoldingDoor_02_visualMesh' with 167 faces
g aws_FoldingDoor_02_visualMesh
usemtl Material #25
f  1/1/1 2/2/1 3/3/1
f  2/2/1 1/1/1 4/4/1
f  4/5/1 5/6/1 2/7/1
f  6/8/1 5/9/1 7/10/1
f  5/9/1 6/8/1 8/11/1
f  8/12/1 1/13/1 3/14/1
f  6/15/1 1/13/1 8/12/1
f  9/16/2 10/17/2 11/18/2
f  10/17/2 9/16/2 12/19/2
f  13/20/2 11/21/2 10/22/2
f  14/23/2 13/24/2 15/25/2
f  13/24/2 14/23/2 16/26/2
f  9/27/2 14/28/2 15/29/2
f  9/27/2 15/29/2 12/30/2
f  4/4/3 1/1/3 9/16/3
f  9/16/3 11/18/3 4/4/3
f  2/2/4 12/31/4 3/3/4
f  12/31/4 2/2/4 10/32/4
f  2/7/5 13/33/5 10/34/5
f  13/33/5 2/7/5 5/6/5
f  6/8/4 16/26/4 14/23/4
f  16/26/4 6/8/4 7/10/4
f  5/9/3 8/11/3 15/35/3
f  15/35/3 13/36/3 5/9/3
f  1/13/5 14/28/5 9/27/5
f  14/28/5 1/13/5 6/15/5
f  8/12/6 12/37/6 15/38/6
f  12/37/6 8/12/6 3/14/6
f  17/39/5 18/40/5 19/41/5
f  19/41/5 18/40/5 20/42/5
f  21/43/1 18/40/1 17/39/1
f  18/40/1 21/43/1 22/44/1
f  20/42/4 18/40/4 22/45/4
f  20/42/4 22/45/4 23/46/4
f  19/41/2 20/42/2 23/47/2
f  19/41/2 23/47/2 24/48/2
f  25/49/6 26/50/6 27/51/6
f  27/51/6 28/52/6 25/49/6
f  28/52/1 29/53/1 30/54/1
f  29/53/1 28/52/1 27/51/1
f  27/51/4 31/55/4 29/56/4
f  31/55/4 27/51/4 26/50/4
f  32/57/2 31/58/2 26/50/2
f  32/57/2 26/50/2 25/49/2
f  33/59/4 34/60/4 35/61/4
f  35/61/4 36/62/4 33/59/4
f  37/63/3 38/64/3 39/65/3
f  38/64/3 37/63/3 40/66/3
f  40/67/5 41/68/5 42/69/5
f  42/69/5 38/70/5 40/67/5
f  41/71/4 43/72/4 44/73/4
f  44/73/4 42/74/4 41/71/4
f  45/75/3 46/76/3 47/77/3
f  46/76/3 45/75/3 48/78/3
f  48/79/5 49/80/5 50/81/5
f  50/81/5 46/82/5 48/79/5
f  51/83/6 52/84/6 53/85/6
f  53/85/6 54/86/6 51/83/6
f  52/87/3 55/88/3 53/89/3
f  55/88/3 52/87/3 56/90/3
f  56/91/5 57/92/5 58/93/5
f  58/93/5 55/94/5 56/91/5
f  59/95/6 60/96/6 61/97/6
f  61/97/6 62/98/6 59/95/6
f  60/99/3 63/100/3 61/101/3
f  63/100/3 60/99/3 64/102/3
f  65/103/4 66/104/4 67/105/4
f  67/105/4 68/106/4 65/103/4
f  66/107/7 69/108/7 70/109/7
f  70/109/7 67/110/7 66/107/7
f  69/111/3 71/112/3 70/113/3
f  71/112/3 69/111/3 72/114/3
f  73/115/4 74/116/4 75/117/4
f  75/117/4 76/118/4 73/115/4
f  74/119/6 77/120/6 78/121/6
f  78/121/6 75/122/6 74/119/6
f  79/123/5 80/124/5 81/125/5
f  81/125/5 82/126/5 79/123/5
f  80/127/4 83/128/4 84/129/4
f  84/129/4 81/130/4 80/127/4
f  83/131/6 85/132/6 86/133/6
f  86/133/6 84/134/6 83/131/6
f  87/135/5 33/136/5 36/137/5
f  36/137/5 88/138/5 87/135/5
f  89/139/3 90/140/3 91/141/3
f  90/140/3 89/139/3 92/142/3
f  92/143/5 93/144/5 94/145/5
f  94/145/5 90/146/5 92/143/5
f  93/147/4 95/148/4 96/149/4
f  96/149/4 94/150/4 93/147/4
f  95/151/6 89/152/6 91/153/6
f  91/153/6 96/154/6 95/151/6
f  56/90/2 52/87/2 95/148/2
f  95/148/2 93/147/2 56/90/2
f  53/89/1 55/88/1 96/155/1
f  96/155/1 55/88/1 94/156/1
f  80/124/2 79/123/2 77/120/2
f  80/124/2 77/120/2 74/119/2
f  75/157/1 78/158/1 81/125/1
f  82/126/1 81/125/1 78/158/1
f  33/136/2 87/135/2 85/132/2
f  33/136/2 85/132/2 83/131/2
f  84/159/1 86/160/1 36/137/1
f  88/138/1 36/137/1 86/160/1
f  41/68/2 40/67/2 89/152/2
f  41/68/2 89/152/2 95/151/2
f  42/69/1 91/161/1 38/70/1
f  91/161/1 42/69/1 96/162/1
f  40/66/2 37/63/2 34/60/2
f  34/60/2 33/59/2 40/66/2
f  36/163/1 38/70/1 91/161/1
f  36/163/1 91/161/1 84/164/1
f  69/108/2 93/144/2 92/143/2
f  93/144/2 69/108/2 66/107/2
f  67/165/1 70/166/1 94/145/1
f  90/146/1 94/145/1 70/166/1
f  57/92/2 56/91/2 60/96/2
f  57/92/2 60/96/2 59/95/2
f  58/93/1 61/167/1 55/94/1
f  61/167/1 58/93/1 62/168/1
f  95/151/2 48/169/2 41/68/2
f  48/169/2 95/151/2 52/170/2
f  42/69/1 46/171/1 96/162/1
f  46/171/1 53/172/1 96/162/1
f  49/80/2 48/79/2 52/84/2
f  49/80/2 52/84/2 51/83/2
f  50/81/1 53/173/1 46/82/1
f  53/173/1 50/81/1 54/174/1
f  48/78/2 45/75/2 43/72/2
f  43/72/2 41/71/2 48/78/2
f  47/77/1 46/76/1 44/175/1
f  44/175/1 46/76/1 42/176/1
f  56/177/2 93/144/2 60/178/2
f  93/144/2 66/107/2 60/178/2
f  66/104/2 64/102/2 60/99/2
f  64/102/2 66/104/2 65/103/2
f  55/179/1 61/180/1 94/145/1
f  94/145/1 61/180/1 67/165/1
f  61/101/1 63/100/1 67/181/1
f  67/181/1 63/100/1 68/182/1
f  70/183/1 71/184/1 75/117/1
f  75/117/1 71/184/1 76/118/1
f  81/185/1 90/146/1 75/186/1
f  90/146/1 70/166/1 75/186/1
f  74/116/2 72/114/2 69/111/2
f  72/114/2 74/116/2 73/115/2
f  80/187/2 74/188/2 92/143/2
f  92/143/2 74/188/2 69/108/2
f  83/128/2 92/142/2 89/139/2
f  92/142/2 83/128/2 80/127/2
f  40/67/2 33/189/2 89/152/2
f  33/189/2 83/190/2 89/152/2
f  39/191/1 38/192/1 35/61/1
f  35/61/1 38/192/1 36/62/1
f  91/193/1 90/194/1 84/129/1
f  84/129/1 90/194/1 81/130/1
f  30/14/5 29/9/5 32/7/5
f  32/7/5 29/9/5 31/10/5
f  30/14/3 32/7/3 25/25/3
f  30/14/3 25/25/3 28/23/3
f  17/19/3 19/16/3 24/8/3
f  17/19/3 24/8/3 21/11/3
f  22/18/6 21/11/6 23/17/6
f  23/17/6 21/11/6 24/8/6
f  97/6/1 5/6/1 4/5/1
f  97/9/1 7/10/1 5/9/1
f  13/20/2 16/20/2 11/21/2

