# File produced by Open Asset Import Library (http://www.assimp.sf.net)
# (assimp v5.0.639693989)

mtllib material.mtl

# 10 vertex positions
v  -2.5 -4.9999999e-05 -3.2999959
v  -9.5 -4.9999999e-05 -3.2999959
v  -9.5 -4.9999999e-05 5.7000041
v  -2.5 -4.9999999e-05 5.7000041
v  4.8362131 -4.9999999e-05 -3.2999959
v  4.8977361 -4.9999999e-05 5.7000041
v  9.5 -4.9999999e-05 -3.2999959
v  9.5 -4.9999999e-05 5.7000041
v  -2.5 -4.9999999e-05 -5.699996
v  4.8362131 -4.9999999e-05 -5.7000041

# 10 UV coordinates
vt -0.648763 -0.418962 0
vt -0.64866698 -2.494813 0
vt 2.0202479 -2.4946649 0
vt 2.020196 -0.418908 0
vt -0.648646 1.756562 0
vt 2.020313 1.774538 0
vt -0.64854997 3.1394949 0
vt 2.0203559 3.139271 0
vt -1.360479 -0.41892999 0
vt -1.3604159 1.756605 0

# 1 vertex normals
vn 0 1 0

# Mesh 'aws_FloorB_01_visualMesh' with 8 faces
g aws_FloorB_01_visualMesh
usemtl Material #76
f  1/1/1 2/2/1 3/3/1
f  1/1/1 3/3/1 4/4/1
f  5/5/1 1/1/1 4/4/1
f  5/5/1 4/4/1 6/6/1
f  7/7/1 6/6/1 8/8/1
f  6/6/1 7/7/1 5/5/1
f  9/9/1 5/5/1 10/10/1
f  5/5/1 9/9/1 1/1/1

