# File produced by Open Asset Import Library (http://www.assimp.sf.net)
# (assimp v5.0.639693989)

mtllib material.mtl

# 48 vertex positions
v  0.27064553 0.76353812 -0.011891477
v  -0.27064553 0 -0.011891603
v  -0.27064553 0.76353812 -0.011891477
v  0.27064553 0 -0.011891603
v  0.26853451 0.0021110231 0.010632177
v  -0.26853451 0.0021110231 0.010632177
v  0.26853451 0.7614271 0.010632298
v  -0.26853451 0.7614271 0.010632298
v  -0.26751819 0.0031273193 0.011891481
v  0.26751819 0.0031273193 0.011891481
v  0.25925848 0.011387055 0.011891481
v  -0.25925848 0.011387055 0.011891481
v  0.26751819 0.76041079 0.011891604
v  0.25925848 0.75215101 0.011891604
v  -0.26751819 0.76041079 0.011891604
v  -0.25925848 0.75215101 0.011891604
v  -0.25789014 0.012755372 0.010808988
v  0.25789014 0.012755372 0.010808988
v  0.25506651 0.015578981 0.004306552
v  -0.25506651 0.015578981 0.004306552
v  0.25506651 0.74795914 0.0043066703
v  0.25789014 0.75078273 0.01080911
v  -0.25789014 0.75078273 0.01080911
v  -0.25506651 0.74795914 0.0043066703
v  0.24890243 0.021743074 0.004306552
v  -0.24890243 0.021743074 0.004306552
v  0.24890243 0.741795 0.0043066703
v  -0.24890243 0.741795 0.0043066703
v  0.24610901 0.0245365 0.010198158
v  -0.24610901 0.0245365 0.010198158
v  0.24610901 0.73900163 0.010198276
v  -0.24610901 0.73900163 0.010198276
v  -0.24471049 0.025934998 0.011253242
v  0.24471049 0.025934998 0.011253242
v  0.23945808 0.03118741 0.011253242
v  -0.23945808 0.03118741 0.011253242
v  0.24471049 0.73760313 0.011253357
v  0.23945808 0.73235071 0.011253357
v  -0.24471049 0.73760313 0.011253357
v  -0.23945808 0.73235071 0.011253357
v  -0.2380954 0.032550082 0.010165881
v  0.2380954 0.032550082 0.010165881
v  0.23372431 0.036921173 -6.8531997e-05
v  -0.23372431 0.036921173 -6.8531997e-05
v  0.23372431 0.72661698 -6.8421003e-05
v  0.2380954 0.73098809 0.010165996
v  -0.2380954 0.73098809 0.010165996
v  -0.23372431 0.72661698 -6.8421003e-05

# 112 UV coordinates
vt 0.02 0.70433003 0
vt 0.44691601 0.102128 0
vt 0.44691601 0.70433003 0
vt 0.02 0.102128 0
vt 0.44525 0.78521001 0
vt 0.021664999 0.78521001 0
vt 0.02 0.76736701 0
vt 0.446915 0.76736701 0
vt 0.62220198 0.061064001 0
vt 0.021668 0.078973003 0
vt 0.02 0.061129998 0
vt 0.62054002 0.078906998 0
vt 0.02 0.72630298 0
vt 0.44691601 0.72630298 0
vt 0.445252 0.74414599 0
vt 0.021666 0.74414599 0
vt 0.62054002 0.037843 0
vt 0.021668 0.037909001 0
vt 0.02 0.020066001 0
vt 0.62220198 0.02 0
vt 0.02 0.87002701 0
vt 0.441982 0.87002701 0
vt 0.435469 0.87654197 0
vt 0.026515 0.87654197 0
vt 0.58890498 0.102128 0
vt 0.58890599 0.699395 0
vt 0.58239102 0.69288099 0
vt 0.58239102 0.108643 0
vt 0.44198301 0.84759498 0
vt 0.02 0.84759498 0
vt 0.026513999 0.84108102 0
vt 0.435467 0.84108102 0
vt 0.479918 0.69939601 0
vt 0.479918 0.102128 0
vt 0.486433 0.108642 0
vt 0.486433 0.69288099 0
vt 0.027597001 0.877918 0
vt 0.43439201 0.877918 0
vt 0.43216899 0.88350999 0
vt 0.029827001 0.88350999 0
vt 0.57542098 0.68957698 0
vt 0.58101302 0.109723 0
vt 0.58101398 0.69180298 0
vt 0.57542002 0.111951 0
vt 0.43438599 0.83970499 0
vt 0.027590999 0.83970499 0
vt 0.029813999 0.834113 0
vt 0.43215501 0.834113 0
vt 0.493404 0.68957299 0
vt 0.487811 0.109721 0
vt 0.493404 0.111947 0
vt 0.48780999 0.69180101 0
vt 0.427313 0.888372 0
vt 0.034694999 0.888372 0
vt 0.57055598 0.684717 0
vt 0.57055598 0.116814 0
vt 0.034669999 0.82925099 0
vt 0.427288 0.82925099 0
vt 0.49826801 0.116807 0
vt 0.49826801 0.68471003 0
vt 0.425116 0.893516 0
vt 0.036904 0.893516 0
vt 0.56541002 0.11902 0
vt 0.56541002 0.68251598 0
vt 0.036866002 0.824108 0
vt 0.425078 0.824108 0
vt 0.50341398 0.119009 0
vt 0.50341398 0.68250501 0
vt 0.038013 0.894898 0
vt 0.42401901 0.894898 0
vt 0.41988 0.899041 0
vt 0.042160001 0.899041 0
vt 0.564026 0.120124 0
vt 0.564026 0.68141502 0
vt 0.55988097 0.67727399 0
vt 0.55988097 0.124268 0
vt 0.423969 0.82272601 0
vt 0.037964001 0.82272601 0
vt 0.042102002 0.81858402 0
vt 0.41982299 0.81858301 0
vt 0.50479901 0.6814 0
vt 0.50479901 0.12011 0
vt 0.50894302 0.124251 0
vt 0.50894302 0.677257 0
vt 0.043237001 0.90041697 0
vt 0.41880801 0.90041697 0
vt 0.41536099 0.90919399 0
vt 0.046684999 0.90919399 0
vt 0.54972702 0.67275298 0
vt 0.558505 0.12534399 0
vt 0.558505 0.67619997 0
vt 0.54972702 0.128791 0
vt 0.41874599 0.81720799 0
vt 0.043173999 0.81720901 0
vt 0.046620999 0.80843103 0
vt 0.415297 0.80843103 0
vt 0.51909697 0.67273301 0
vt 0.51031899 0.12532499 0
vt 0.51909697 0.128773 0
vt 0.51031899 0.67618102 0
vt 0.022467 0.78648698 0
vt 0.44444901 0.78648698 0
vt 0.619739 0.080182999 0
vt 0.022469999 0.080248997 0
vt 0.022468001 0.74542201 0
vt 0.444451 0.74542201 0
vt 0.619739 0.039119001 0
vt 0.022469999 0.039184999 0
vt 0.99647802 1.0010639 0
vt 0.0055780001 1.0010639 0
vt 0.0055780001 0.0027439999 0
vt 0.99647802 0.0027439999 0

# 38 vertex normals
vn 0 0 -0.001
vn 0 -0.00099563703 9.3315e-05
vn 0.00099563703 0 9.3315e-05
vn 0 0.00099563703 9.3315e-05
vn -0.00099563703 0 9.3315e-05
vn 0 0 0.001
vn 0 0.00091725204 0.00039830603
vn -0.00091725204 0 0.00039830804
vn 0 -0.00091725308 0.00039830603
vn 0.00091725204 0 0.00039830804
vn 0 -0.00090358005 0.00042842003
vn 0.00090358005 0 0.00042842003
vn 0 0.00090358005 0.00042842003
vn -0.00090358005 0 0.00042842003
vn 0 0.00091963506 0.000392774
vn -0.00091963506 0 0.000392774
vn 0 -0.00091963506 0.000392774
vn 0.00091963506 0 0.000392774
vn 0 -0.00077819306 0.00062802504
vn 0.00077819306 0 0.00062802504
vn 0 0.00077819306 0.00062802504
vn -0.00077819306 0 0.00062802504
vn 0 0.00062043604 0.00078425702
vn -0.00062043604 0 0.00078425702
vn 0 -0.00062043604 0.00078425702
vn 0.00062043604 0 0.00078425702
vn 0 -0.00060226605 0.00079829508
vn 0.00060226105 0 0.00079829904
vn 0.00060226204 0 0.00079829904
vn 0 0.000602265 0.00079829601
vn -0.00060226105 0 0.00079829904
vn -0.00060226204 0 0.00079829904
vn 0 0.00062372402 0.00078164501
vn 0 0.00062372303 0.00078164501
vn -0.00062372402 0 0.00078164501
vn 0 -0.00062372402 0.00078164501
vn 0 -0.00062372303 0.00078164501
vn 0.00062372402 0 0.00078164501

# Mesh 'aws_PortraitE_01_visualMesh' with 90 faces
g aws_PortraitE_01_visualMesh
usemtl Material #25
f  1/1/1 2/2/1 3/3/1
f  2/2/1 1/1/1 4/4/1
f  5/5/2 6/6/2 2/7/2
f  5/5/2 2/7/2 4/8/2
f  1/9/3 5/10/3 4/11/3
f  5/10/3 1/9/3 7/12/3
f  1/13/4 3/14/4 8/15/4
f  1/13/4 8/15/4 7/16/4
f  6/17/5 8/18/5 3/19/5
f  3/19/5 2/20/5 6/17/5
f  9/21/6 10/22/6 11/23/6
f  9/21/6 11/23/6 12/24/6
f  10/25/6 13/26/6 14/27/6
f  10/25/6 14/27/6 11/28/6
f  13/29/6 15/30/6 16/31/6
f  13/29/6 16/31/6 14/32/6
f  15/33/6 9/34/6 12/35/6
f  15/33/6 12/35/6 16/36/6
f  17/37/7 18/38/7 19/39/7
f  17/37/7 19/39/7 20/40/7
f  21/41/8 18/42/8 22/43/8
f  18/42/8 21/41/8 19/44/8
f  22/45/9 23/46/9 24/47/9
f  22/45/9 24/47/9 21/48/9
f  24/49/10 17/50/10 20/51/10
f  17/50/10 24/49/10 23/52/10
f  20/40/6 19/39/6 25/53/6
f  20/40/6 25/53/6 26/54/6
f  19/44/6 21/41/6 27/55/6
f  19/44/6 27/55/6 25/56/6
f  21/48/6 24/47/6 28/57/6
f  21/48/6 28/57/6 27/58/6
f  24/49/6 20/51/6 26/59/6
f  24/49/6 26/59/6 28/60/6
f  26/54/11 25/53/11 29/61/11
f  26/54/11 29/61/11 30/62/11
f  27/55/12 29/63/12 25/56/12
f  29/63/12 27/55/12 31/64/12
f  32/65/13 27/58/13 28/57/13
f  27/58/13 32/65/13 31/66/13
f  30/67/14 32/68/14 28/60/14
f  28/60/14 26/59/14 30/67/14
f  33/69/6 34/70/6 35/71/6
f  33/69/6 35/71/6 36/72/6
f  34/73/6 37/74/6 38/75/6
f  34/73/6 38/75/6 35/76/6
f  37/77/6 39/78/6 40/79/6
f  37/77/6 40/79/6 38/80/6
f  39/81/6 33/82/6 36/83/6
f  39/81/6 36/83/6 40/84/6
f  41/85/15 42/86/15 43/87/15
f  41/85/15 43/87/15 44/88/15
f  45/89/16 42/90/16 46/91/16
f  42/90/16 45/89/16 43/92/16
f  46/93/17 47/94/17 48/95/17
f  46/93/17 48/95/17 45/96/17
f  48/97/18 41/98/18 44/99/18
f  41/98/18 48/97/18 47/100/18
f  6/6/19 5/5/19 9/101/19
f  9/101/19 5/5/19 10/102/19
f  13/103/20 10/104/20 7/12/20
f  7/12/20 10/104/20 5/10/20
f  7/16/21 8/15/21 13/105/21
f  13/105/21 8/15/21 15/106/21
f  8/18/22 9/107/22 15/108/22
f  9/107/22 8/18/22 6/17/22
f  12/24/23 11/23/23 17/37/23
f  17/37/23 11/23/23 18/38/23
f  14/27/24 18/42/24 11/28/24
f  18/42/24 14/27/24 22/43/24
f  14/32/25 16/31/25 22/45/25
f  22/45/25 16/31/25 23/46/25
f  16/36/26 12/35/26 23/52/26
f  23/52/26 12/35/26 17/50/26
f  30/62/27 29/61/27 33/69/27
f  33/69/27 29/61/27 34/70/27
f  31/64/28 34/73/29 29/63/28
f  34/73/29 31/64/28 37/74/29
f  31/66/30 32/65/30 37/77/30
f  37/77/30 32/65/30 39/78/30
f  32/68/31 30/67/31 39/81/32
f  39/81/32 30/67/31 33/82/32
f  36/72/33 35/71/33 41/85/34
f  41/85/34 35/71/33 42/86/34
f  38/75/35 42/90/35 35/76/35
f  42/90/35 38/75/35 46/91/35
f  38/80/36 40/79/36 46/93/37
f  46/93/37 40/79/36 47/94/37
f  40/84/38 36/83/38 47/100/38
f  47/100/38 36/83/38 41/98/38

# Mesh 'aws_PortraitE_01_visualMesh' with 2 faces
g aws_PortraitE_01_visualMesh
usemtl Material #26
f  45/109/6 48/110/6 44/111/6
f  45/109/6 44/111/6 43/112/6

