# File produced by Open Asset Import Library (http://www.assimp.sf.net)
# (assimp v5.0.639693989)

mtllib airconditioner.mtl

# 113 vertex positions
v  0.03789195 0 0.39999998
v  -0.099999994 0 0.39999998
v  -0.099999994 0 -0.39999998
v  0.03789195 0 -0.39999998
v  -0.099999994 0.25 0.36414
v  0.10537002 0.25 0.36414
v  0.10537002 0.25 -0.37
v  -0.099999994 0.25 -0.37
v  -0.099999994 0.22 -0.39999998
v  0.10537002 0.22 -0.39999998
v  0.099999994 0.062108047 -0.39999998
v  0.091881998 0.028274419 -0.39999998
v  -0.099999994 0.24166666 -0.39166668
v  -0.099999994 0.24166666 0.39166668
v  0.07239642 0.0069009 0.39999998
v  0.07239642 0.0069009 -0.39999998
v  0.099999994 0.062108047 0.39999998
v  0.10537002 0.067869082 0.39999998
v  0.10537002 0.22 0.39999998
v  0.10537002 0.067869082 -0.39999998
v  0.091881998 0.028274419 0.39999998
v  0.10537002 0.24166666 0.39166668
v  0.10537002 0.24166666 -0.39166668
v  -0.099999994 0.22 0.39999998
v  -0.088059559 0.28904879 0.56762379
v  -0.099193104 0.28904879 0.56762379
v  -0.099193081 0.28904879 0.47125807
v  -0.088059545 0.28904879 0.47125807
v  -0.088059574 0.36933792 0.56762379
v  -0.099193111 0.36933792 0.56762379
v  -0.088059559 0.36933792 0.47125807
v  -0.099193096 0.36933792 0.47125807
v  -0.088479914 0.32278141 0.50468105
v  -0.088479914 0.35361019 0.51690549
v  -0.075829789 0.35396934 0.51690537
v  -0.076203659 0.32314041 0.50468105
v  -0.088479914 0.35384333 0.52482319
v  -0.088479914 0.32262835 0.53938836
v  -0.07578364 0.32298744 0.53938836
v  -0.075842485 0.35420248 0.52541482
v  -0.07659822 0.31384763 0.51099277
v  -0.088420101 0.3136681 0.51099277
v  -0.088259131 0.31371346 0.53361791
v  -0.07627625 0.31389305 0.53361791
v  -0.08559303 0.31368572 0.51690936
v  -0.084909268 0.30504504 0.51663584
v  -0.088473625 0.30470809 0.5251748
v  -0.088876911 0.31354421 0.52533609
v  -0.080516621 0.31370205 0.52910382
v  -0.079817116 0.3050679 0.52882403
v  -0.076284409 0.30540314 0.52029771
v  -0.076967701 0.31384265 0.52057111
v  -0.061869211 0.03863398 0.43172568
v  -0.061869211 0.03465673 0.44330412
v  -0.05320897 0.03465673 0.44330412
v  -0.05320897 0.03863398 0.43172568
v  -0.057539098 0.027729111 0.44041184
v  -0.057539079 0.03149128 0.42943847
v  -0.06186923 0.028739929 0.45392817
v  -0.05320897 0.028739929 0.45392817
v  -0.057539098 0.022843817 0.44923842
v  -0.06186923 0.01898453 0.46194163
v  -0.05320897 0.01898453 0.46194163
v  -0.057539098 0.01563148 0.45517531
v  -0.06186923 0.00195717 0.46576986
v  -0.05320897 0.00195717 0.46576986
v  -0.057539091 0.0011945299 0.45830408
v  -0.061869219 -0.047503971 0.46858385
v  -0.053208981 -0.047503971 0.46858385
v  -0.057539091 -0.048042603 0.46110228
v  -0.061869238 -0.077396698 0.47320399
v  -0.053208981 -0.077396698 0.47320399
v  -0.057539109 -0.078595921 0.46569592
v  -0.061869238 -0.094486274 0.48232937
v  -0.053208981 -0.094486274 0.48232937
v  -0.057539109 -0.099842906 0.47706237
v  -0.061869238 -0.1004013 0.49743879
v  -0.053208981 -0.1004013 0.49743876
v  -0.057539098 -0.10798485 0.4959085
v  -0.061869238 -0.095722996 0.51562864
v  -0.053208981 -0.095722996 0.51562864
v  -0.057539109 -0.10109741 0.52103782
v  -0.06245194 -0.061857827 0.53477979
v  -0.053791698 -0.061857827 0.53477979
v  -0.058358688 -0.063668095 0.54209584
v  -0.069024801 0.00822559 0.54401916
v  -0.060364541 0.00822559 0.54401916
v  -0.064879976 0.0082716793 0.55152363
v  -0.082505099 0.16303132 0.51955765
v  -0.073844835 0.16303134 0.51955765
v  -0.078139253 0.16375545 0.52696729
v  -0.083080612 0.21384414 0.5182299
v  -0.074420333 0.21384406 0.51822996
v  -0.078618579 0.21470515 0.52567983
v  -0.078606702 0.31575239 0.5200209
v  -0.087266959 0.31575245 0.52002084
v  -0.082765117 0.31665653 0.52746624
v  -0.057539072 0.031267129 0.41181892
v  -0.057539072 0.028322479 0.39702383
v  -0.048023079 0.037499998 0.39702383
v  -0.050378542 0.038172968 0.41181892
v  -0.057539072 0.045078821 0.41181892
v  -0.057539072 0.046677522 0.39702383
v  -0.067055054 0.037499998 0.39702383
v  -0.064699613 0.038172968 0.41181892
v  -0.050378542 0.036856301 0.42265838
v  -0.057539072 0.029950449 0.42265838
v  -0.057539072 0.04376214 0.42265838
v  -0.064699613 0.036856301 0.42265838
v  -0.050378542 0.035084501 0.43672153
v  -0.057539072 0.026260171 0.43672153
v  -0.057539072 0.04199034 0.43672153
v  -0.064699613 0.035084501 0.43672153

# 238 UV coordinates
vt 0.21461099 0.15968101 0
vt 0.21461099 0.027079999 0
vt 0.98391002 0.027079999 0
vt 0.98391002 0.15968101 0
vt 0.024798 0.222565 0
vt 0.18054999 0.222565 0
vt 0.18054999 0.779333 0
vt 0.024798 0.779333 0
vt 0.024799 0.81584001 0
vt 0.176478 0.81583798 0
vt 0.176479 0.935583 0
vt 0.170323 0.96124202 0
vt 0.95780802 0.450095 0
vt 0.244084 0.450095 0
vt 0.22302 0.44199401 0
vt 0.98456901 0.441993 0
vt 0.21461099 0.193518 0
vt 0.98391002 0.193518 0
vt 0.17648201 0.061872002 0
vt 0.180554 0.066241004 0
vt 0.18055101 0.18161599 0
vt 0.98801601 0.52519798 0
vt 0.988015 0.53296202 0
vt 0.199441 0.53296202 0
vt 0.199441 0.525199 0
vt 0.18055201 0.93121397 0
vt 0.199442 0.49071899 0
vt 0.98801601 0.49071899 0
vt 0.024799 0.199867 0
vt 0.18054999 0.19986901 0
vt 0.199442 0.46214899 0
vt 0.98801601 0.46214899 0
vt 0.18054999 0.79758602 0
vt 0.024798 0.79758698 0
vt 0.024800001 0.181613 0
vt 0.024805 0.014766 0
vt 0.129381 0.014769 0
vt 0.97880298 0.953228 0
vt 0.97074997 0.97416502 0
vt 0.213811 0.97416502 0
vt 0.205759 0.953228 0
vt 0.12937801 0.98268503 0
vt 0.024800999 0.982687 0
vt 0.15554599 0.97745103 0
vt 0.155549 0.020003 0
vt 0.17032599 0.036212999 0
vt 0.214918 0.42092901 0
vt 0.99267101 0.42092901 0
vt 0.214918 0.207047 0
vt 0.99267101 0.207047 0
vt 0.94981402 0.98221701 0
vt 0.24041 0.98221803 0
vt 0.20575801 0.80622298 0
vt 0.97880298 0.80622298 0
vt 0.34063399 0.76370198 0
vt 0.340785 0.77558398 0
vt 0.19152801 0.777475 0
vt 0.191378 0.76559299 0
vt 0.59093797 0.69299197 0
vt 0.58025903 0.69356698 0
vt 0.57424498 0.581734 0
vt 0.58492398 0.58116001 0
vt 0.191534 0.79618299 0
vt 0.191406 0.78430098 0
vt 0.340666 0.78269202 0
vt 0.340794 0.79457402 0
vt 0.55535001 0.558586 0
vt 0.56538999 0.55853599 0
vt 0.56591898 0.66368502 0
vt 0.55587798 0.66373497 0
vt 0.192733 0.54091102 0
vt 0.34455699 0.54039198 0
vt 0.34498999 0.667198 0
vt 0.193166 0.66771698 0
vt 0.362434 0.690808 0
vt 0.36276001 0.62707102 0
vt 0.399827 0.62666202 0
vt 0.39840499 0.69035101 0
vt 0.36384699 0.60395497 0
vt 0.362434 0.53778702 0
vt 0.39963701 0.53761297 0
vt 0.40089199 0.60331202 0
vt 0.400769 0.61773503 0
vt 0.3637 0.61734802 0
vt 0.31130299 0.75545198 0
vt 0.31203201 0.69482201 0
vt 0.351179 0.69590002 0
vt 0.350393 0.75855601 0
vt 0.236251 0.69383699 0
vt 0.235562 0.75613397 0
vt 0.197679 0.758766 0
vt 0.19854 0.693968 0
vt 0.80367601 0.54570502 0
vt 0.80781901 0.59977198 0
vt 0.73910302 0.60151899 0
vt 0.73591202 0.54639 0
vt 0.66625702 0.553693 0
vt 0.66828197 0.60785502 0
vt 0.59692502 0.61414999 0
vt 0.59496498 0.56120801 0
vt 0.87453699 0.54505402 0
vt 0.87867302 0.59786999 0
vt 0.262647 0.72338402 0
vt 0.27375001 0.707169 0
vt 0.28401601 0.72343999 0
vt 0.27291501 0.73957098 0
vt 0.91512299 0.68127298 0
vt 0.969311 0.68058401 0
vt 0.98465198 0.70272499 0
vt 0.90148699 0.70323497 0
vt 0.47851399 0.58226502 0
vt 0.47851399 0.64951199 0
vt 0.43619499 0.64951199 0
vt 0.43619499 0.58226502 0
vt 0.956128 0.776869 0
vt 0.93575197 0.77763402 0
vt 0.90295798 0.64546299 0
vt 0.89262301 0.65005201 0
vt 0.887761 0.63957 0
vt 0.89821202 0.634754 0
vt 0.85882902 0.622293 0
vt 0.85248101 0.626984 0
vt 0.85764098 0.63349003 0
vt 0.86367899 0.62891603 0
vt 0.907736 0.65630901 0
vt 0.89771599 0.66079903 0
vt 0.88278502 0.654957 0
vt 0.87758201 0.64479899 0
vt 0.88744497 0.63978499 0
vt 0.84664297 0.63206398 0
vt 0.852727 0.63793403 0
vt 0.88936502 0.665281 0
vt 0.88297403 0.65524602 0
vt 0.83975101 0.62713403 0
vt 0.835006 0.63367999 0
vt 0.84162498 0.638336 0
vt 0.846259 0.63185698 0
vt 0.84894902 0.64286399 0
vt 0.88253099 0.67060202 0
vt 0.87425297 0.66219199 0
vt 0.87385303 0.661798 0
vt 0.86458999 0.67440099 0
vt 0.85550803 0.66768098 0
vt 0.86492097 0.655047 0
vt 0.83664799 0.64875001 0
vt 0.84471202 0.652022 0
vt 0.87395698 0.68107402 0
vt 0.840137 0.71158397 0
vt 0.83061498 0.70556098 0
vt 0.85523301 0.66793299 0
vt 0.82388097 0.681288 0
vt 0.83237499 0.68462801 0
vt 0.84940499 0.71754402 0
vt 0.82604402 0.734115 0
vt 0.81658 0.728221 0
vt 0.83067697 0.70556003 0
vt 0.81484801 0.70183402 0
vt 0.82343298 0.70530599 0
vt 0.834714 0.739187 0
vt 0.82572401 0.733805 0
vt 0.80618 0.69728303 0
vt 0.79935098 0.70997399 0
vt 0.80815601 0.714746 0
vt 0.80685598 0.71497399 0
vt 0.81428403 0.72054398 0
vt 0.82235903 0.75408602 0
vt 0.815189 0.74726498 0
vt 0.800188 0.70727199 0
vt 0.79046398 0.71564698 0
vt 0.797113 0.723607 0
vt 0.80324399 0.73110801 0
vt 0.80968201 0.76373303 0
vt 0.804129 0.75544202 0
vt 0.80413002 0.75631899 0
vt 0.78899801 0.76192701 0
vt 0.78517002 0.75157601 0
vt 0.80025798 0.74612701 0
vt 0.78264302 0.73082298 0
vt 0.785061 0.74090397 0
vt 0.79089397 0.77197999 0
vt 0.78899097 0.763179 0
vt 0.75392503 0.76584399 0
vt 0.75359201 0.75439399 0
vt 0.788342 0.75193602 0
vt 0.74809402 0.73581898 0
vt 0.74791902 0.74726301 0
vt 0.75480098 0.77712703 0
vt 0.68776 0.76790202 0
vt 0.68882501 0.756212 0
vt 0.754848 0.75423998 0
vt 0.67887098 0.73676199 0
vt 0.677607 0.74911398 0
vt 0.68735301 0.77910799 0
vt 0.68650299 0.76721001 0
vt 0.535303 0.75225002 0
vt 0.53731698 0.74059099 0
vt 0.68913102 0.75534999 0
vt 0.51663101 0.72559798 0
vt 0.516626 0.73847699 0
vt 0.53624302 0.771743 0
vt 0.536578 0.76024699 0
vt 0.51740497 0.71283102 0
vt 0.46737799 0.706469 0
vt 0.46709001 0.71877903 0
vt 0.46649 0.72633803 0
vt 0.46538499 0.73940301 0
vt 0.48745501 0.77416003 0
vt 0.48685801 0.76219302 0
vt 0.358013 0.73140901 0
vt 0.46475801 0.71320498 0
vt 0.35648099 0.71809399 0
vt 0.35714301 0.74464899 0
vt 0.38760599 0.76865602 0
vt 0.38781199 0.78105003 0
vt 0.493745 0.55246198 0
vt 0.53906602 0.53784698 0
vt 0.54637599 0.58298898 0
vt 0.49801999 0.58863002 0
vt 0.49860901 0.62551397 0
vt 0.54643297 0.62815303 0
vt 0.54140699 0.67303801 0
vt 0.49396399 0.66210997 0
vt 0.52917302 0.71710098 0
vt 0.48573601 0.69758803 0
vt 0.462367 0.587924 0
vt 0.46029401 0.55258203 0
vt 0.46358901 0.62358201 0
vt 0.45844999 0.658889 0
vt 0.452501 0.69378698 0
vt 0.41646501 0.58668602 0
vt 0.41446501 0.54601699 0
vt 0.41791099 0.62106103 0
vt 0.412691 0.65506899 0
vt 0.40622801 0.69527 0
vt 0.70782 0.668993 0
vt 0.753272 0.61298001 0
vt 0.798724 0.668993 0
vt 0.753272 0.71282798 0

# 136 vertex normals
vn 0.00098537991 -0.0099513298 0
vn 0 -0.0099999998 0
vn 0 0.0098921694 0.00146454
vn 0 0.0098319501 -0.00182557
vn 0 0.00182557 -0.0098319501
vn 0 0 -0.0099999998
vn -0.0099999998 0 0
vn 0.00492085 -0.0087054698 0
vn 0 0 0.0099999998
vn 0 0.00182557 0.0098319501
vn 0.0088097099 -0.0047316998 0
vn 0.0093045505 -0.00366405 0
vn 0.0088357395 -0.0046829102 0
vn 0 0.0095710196 0.0028975001
vn 0 0.0093334597 -0.0035897898
vn 0 0.0035897898 -0.0093334597
vn 0 0.0035897898 0.0093334597
vn 0.0099999998 0 0
vn 0 0.0099999998 0
vn -0.00010624 0.0036863801 -0.0092951199
vn -0.00033004998 0.00415499 0.0090899495
vn -0.00027719 0.0099921292 -0.00028385999
vn 0.00012642 -0.0056570498 -0.0082451096
vn 0.00011780999 -0.0053963899 0.00841814
vn -0.0092575094 -0.00048248997 -0.00375043
vn 0.0092118103 0.00062159996 0.0038413799
vn 0.00388541 0.00060539 -0.0091944095
vn -0.0039785998 -0.00048247998 0.0091617694
vn 0.00049428002 -0.0099860104 -0.00018777
vn 0.0099873496 -0.00048572 -0.00013017
vn 0.0099963397 -0.00024701 -0.0001103
vn 0.0099961096 -0.00025603001 -0.00011104999
vn 0.00015082999 -0.0099988403 1.8449999e-05
vn 0.00015082999 -0.0099988496 1.8449999e-05
vn 0.0099994093 -5.3420001e-05 -9.4149997e-05
vn 0 0.0094575798 0.0032487197
vn 0 0.0091328798 0.0040731397
vn 0.0086587695 -0.00473169 -0.0016238301
vn 0.0086602094 -0.0045700697 -0.0020285801
vn 0.0086600296 -0.0045657498 -0.00203907
vn -0.0086587695 -0.0047316798 -0.00162385
vn -0.0086600296 -0.00456574 -0.00203908
vn -0.0086602196 -0.0045700599 -0.0020285898
vn 0 0.0076764897 0.0064087096
vn 0.0086708302 -0.0038329801 -0.00318198
vn 0.0086705098 -0.0038179799 -0.0032008199
vn -0.0086705098 -0.0038179799 -0.0032008199
vn -0.0086708302 -0.0038329698 -0.00318198
vn 0 0.0043893601 0.0089851804
vn 0.0086847395 -0.0021745099 -0.0044549797
vn 0.0086847693 -0.002166 -0.00445905
vn -0.0086847693 -0.002166 -0.0044590603
vn -0.0086847395 -0.0021745099 -0.0044549797
vn 0 0.0013854399 0.0099035604
vn 0.0086517101 -0.00067942997 -0.00496853
vn 0.0086510992 -0.00069519994 -0.0049674097
vn -0.0086510899 -0.00069521001 -0.0049674199
vn -0.0086516999 -0.00067942997 -0.0049685398
vn 0 0.00104894 0.0099448301
vn 0.0086683398 -0.00052146998 -0.0049586296
vn 0.00866812 -0.00051320001 -0.0049598697
vn -0.00866812 -0.00051319 -0.0049598799
vn -0.0086683296 -0.00052145997 -0.0049586496
vn 0 0.00316369 0.0094863595
vn 0.00864489 -0.0016682299 -0.00474161
vn 0.0086546894 -0.0015154199 -0.00477493
vn -0.0086546801 -0.0015154099 -0.00477493
vn -0.00864489 -0.0016682299 -0.00474161
vn 0 0.0074734399 0.00664437
vn 0.0087103201 -0.0036609699 -0.0032753099
vn 0.0087096095 -0.0036086899 -0.0033346701
vn -0.0087096095 -0.0036086999 -0.0033346599
vn -0.0087103201 -0.0036609699 -0.0032753099
vn 0 0.0099815791 0.00060663
vn 0 0.0099815791 0.00060664996
vn 0.0086257393 -0.0050562299 -0.00017643001
vn 0.0086386297 -0.0050185798 -0.00043349998
vn -0.0086386297 -0.00501859 -0.00043350997
vn -0.0086257299 -0.0050562397 -0.00017642
vn -9.9999999e-09 0.0096848095 -0.00249087
vn 0.0086742695 -0.0039961296 0.00296444
vn 0.0086827194 -0.00377867 0.0032143299
vn -0.0087189395 -0.0038611998 0.0030118399
vn -0.0087021599 -0.0040504397 0.0028047098
vn -2e-08 0.0049225199 -0.0087045301
vn -9.9999999e-09 0.00311129 -0.0095036794
vn -9.9999999e-09 0.0032376098 -0.0094613899
vn 0.0086041093 -0.0012462799 0.0049412698
vn 0.0086027803 -0.00108924 0.0049805399
vn -0.0087102596 -0.0019865199 0.00449279
vn -0.0087085702 -0.0020193199 0.0044814199
vn -9.9999999e-09 -0.00021069999 -0.0099977795
vn -9.9999999e-09 -4.6049998e-05 -0.0099998899
vn 0.0085545303 0.00079448998 0.00511751
vn 0.0085551199 0.00083084998 0.0051107397
vn -0.0087289205 -0.00071882003 0.0048258901
vn -0.0087277796 -0.00067323993 0.0048345197
vn -9.9999999e-09 -0.00089231995 -0.0099601103
vn -9.9999999e-09 -0.00093259994 -0.0099564195
vn 0.0086341901 0.00088362 0.00496689
vn 0.0086369198 0.00085923995 0.0049664197
vn -0.0086434102 3.8089998e-05 0.0050289202
vn -0.0086423699 3.8179998e-05 0.0050307098
vn 2e-08 -3.9149996e-05 -0.0099999197
vn 2e-08 -4.6429999e-05 -0.0099998899
vn 0.0087094698 0.00024239 0.0049077901
vn 0.0087123802 0.00024617999 0.0049024401
vn -0.00856891 -0.00021164 0.0051506297
vn -0.0085721798 -0.00018642998 0.00514617
vn 4.9999997e-08 0.00017571 -0.0099984594
vn 0.0087317098 0.00027150998 0.0048665698
vn -0.00853673 -0.00044000999 0.0051894803
vn 0.0069389096 -0.0071948199 0.00029323
vn 0.0068717399 -0.00712517 0.0014181199
vn 0.0069379797 -0.0071938499 0.0003362
vn -0.0069184699 0.0071736299 0.00082081999
vn -0.0069209998 0.00717624 0.00077544001
vn -0.0069183898 0.0071735396 0.00082236994
vn 0.0069183898 0.0071735396 0.00082236994
vn 0.0069209998 0.00717624 0.00077544001
vn 0.0069184797 0.0071736299 0.00082081999
vn -0.0069379699 -0.0071938499 0.0003362
vn -0.0068717399 -0.0071251797 0.00141811
vn -0.0069389096 -0.0071948301 0.00029323
vn 0.0071178102 -0.0069415895 -0.0010729099
vn 0.0071459399 -0.0069081001 -0.0011016499
vn 0.00691459 0.0071696001 0.00088620995
vn 0.0069144797 0.0071694897 0.00088794995
vn -0.0069144699 0.0071694897 0.00088795996
vn -0.0069145798 0.0071696001 0.00088620995
vn -0.0071459399 -0.0069081094 -0.0011016499
vn -0.0071178102 -0.0069415895 -0.0010729099
vn 0.0073321196 -0.0066752997 -0.0012963299
vn 0.0069135302 0.0071684998 0.00090314995
vn -0.0069135199 0.00716851 0.00090314995
vn -0.0073321098 -0.0066752997 -0.0012963299

# Mesh 'aws_AirconditionerA_01_visualMesh' with 98 faces
g aws_AirconditionerA_01_visualMesh
usemtl MaterialFBXASC032FBXASC03525
f  1/1/1 2/2/2 3/3/2 4/4/1
f  5/5/3 6/6/3 7/7/4 8/8/4
f  9/9/5 10/10/5 11/11/6 12/12/6
f  5/13/7 8/14/7 13/15/7 14/16/7
f  15/17/8 1/1/1 4/4/1 16/18/8
f  17/19/9 18/20/9 19/21/10
f  11/22/11 20/23/12 18/24/12 17/25/11
f  11/11/6 10/10/5 20/26/6
f  17/25/11 21/27/13 12/28/13 11/22/11
f  5/5/3 14/29/14 22/30/14 6/6/3
f  15/31/8 16/32/8 12/28/13 21/27/13
f  7/7/4 23/33/15 13/34/15 8/8/4
f  10/10/5 9/9/5 13/34/16 23/33/16
f  14/29/17 24/35/10 19/21/10 22/30/17
f  2/36/9 1/37/9 24/35/10
f  10/38/18 23/39/18 22/40/18 19/41/18
f  4/42/6 3/43/6 9/9/5
f  4/42/6 9/9/5 12/12/6 16/44/6
f  24/35/10 17/19/9 19/21/10
f  24/35/10 1/37/9 15/45/9 21/46/9
f  9/47/7 24/48/7 14/16/7 13/15/7
f  9/47/7 3/49/7 2/50/7 24/48/7
f  24/35/10 21/46/9 17/19/9
f  23/39/18 7/51/18 6/52/18 22/40/18
f  18/53/12 20/54/12 10/38/18 19/41/18
f  25/55/2 26/56/2 27/57/2 28/58/2
f  29/59/9 30/60/9 26/61/9 25/62/9
f  31/63/19 32/64/19 30/65/19 29/66/19
f  28/67/6 27/68/6 32/69/6 31/70/6
f  25/71/18 28/72/18 31/73/18 29/74/18
f  33/75/20 34/76/20 35/77/20 36/78/20
f  37/79/21 38/80/21 39/81/21 40/82/21
f  37/79/22 40/82/22 35/83/22 34/84/22
f  41/85/23 42/86/23 33/87/23 36/88/23
f  43/89/24 44/90/24 39/91/24 38/92/24
f  45/93/25 46/94/25 47/95/25 48/96/25
f  49/97/26 50/98/26 51/99/26 52/100/26
f  52/101/27 51/102/27 46/94/27 45/93/27
f  48/96/28 47/95/28 50/98/28 49/97/28
f  50/103/29 47/104/29 46/105/29 51/106/29
f  44/107/30 41/108/30 36/109/31 39/110/32
f  41/111/33 44/112/34 43/113/34 42/114/34
f  35/115/35 40/116/35 39/110/32 36/109/31
f  53/117/36 54/118/37 55/119/37 56/120/36
f  56/121/38 55/122/39 57/123/40 58/124/38
f  58/125/41 57/126/42 54/118/43 53/117/41
f  54/118/37 59/127/44 60/128/44 55/129/37
f  55/122/39 60/130/45 61/131/46 57/123/40
f  57/126/42 61/132/47 59/133/48 54/118/43
f  59/134/44 62/135/49 63/136/49 60/137/44
f  60/130/45 63/136/50 64/138/51 61/131/46
f  61/132/47 64/139/52 62/140/53 59/133/48
f  62/141/49 65/142/54 66/143/54 63/144/49
f  63/136/50 66/145/55 67/146/56 64/138/51
f  64/139/52 67/147/57 65/142/58 62/140/53
f  65/142/54 68/148/59 69/149/59 66/150/54
f  66/145/55 69/151/60 70/152/61 67/146/56
f  67/147/57 70/153/62 68/148/63 65/142/58
f  68/148/59 71/154/64 72/155/64 69/156/59
f  69/151/60 72/157/65 73/158/66 70/152/61
f  70/153/62 73/159/67 71/160/68 68/148/63
f  71/161/64 74/162/69 75/163/69 72/157/64
f  72/157/65 75/164/70 76/165/71 73/158/66
f  73/159/67 76/166/72 74/167/73 71/160/68
f  74/168/69 77/169/74 78/170/75 75/164/69
f  75/164/70 78/170/76 79/171/77 76/165/71
f  76/166/72 79/172/78 77/173/79 74/167/73
f  77/174/74 80/175/80 81/176/80 78/177/75
f  78/170/76 81/178/81 82/179/82 79/171/77
f  79/172/78 82/180/83 80/175/84 77/173/79
f  80/181/85 83/182/86 84/183/87 81/184/85
f  81/178/81 84/185/88 85/186/89 82/179/82
f  82/180/83 85/187/90 83/182/91 80/175/84
f  83/182/86 86/188/92 87/189/93 84/190/87
f  84/185/88 87/191/94 88/192/95 85/186/89
f  85/187/90 88/193/96 86/194/97 83/182/91
f  86/194/92 89/195/98 90/196/99 87/197/93
f  87/191/94 90/198/100 91/199/101 88/192/95
f  88/193/96 91/200/102 89/201/103 86/194/97
f  90/198/99 89/202/98 92/203/104 93/204/105
f  93/205/106 94/206/107 91/199/101 90/198/100
f  91/200/102 94/207/108 92/208/109 89/201/103
f  95/209/110 93/205/105 92/210/104 96/211/110
f  97/212/111 94/206/107 93/205/106 95/209/111
f  96/213/112 92/208/109 94/207/108 97/214/112
f  98/215/113 99/216/114 100/217/114 101/218/115
f  102/219/116 103/220/117 104/221/117 105/222/118
f  101/218/119 100/217/120 103/220/120 102/219/121
f  105/222/122 104/221/123 99/223/123 98/224/124
f  101/218/115 106/225/125 107/226/126 98/215/113
f  108/227/127 106/225/128 101/218/119 102/219/121
f  109/228/129 108/227/130 102/219/116 105/222/118
f  107/229/131 109/228/132 105/222/122 98/224/124
f  110/230/133 111/231/133 107/226/126 106/225/125
f  106/225/128 108/227/127 112/232/134 110/230/134
f  108/227/130 109/228/129 113/233/135 112/232/135
f  109/228/132 107/229/131 111/234/136 113/233/136
f  113/235/9 111/236/9 110/237/9 112/238/9

