# File produced by Open Asset Import Library (http://www.assimp.sf.net)
# (assimp v5.0.639693989)

mtllib material.mtl

# 96 vertex positions
v  0.014586229 0.00229618 -0.62218589
v  0.031570937 0.00229618 -0.62218589
v  0.029765859 0.00229618 -0.52451438
v  0.011609688 0.00229618 -0.61857986
v  0.014586229 0.79767632 0.67554581
v  0.031088868 0.79767632 0.67554581
v  0.031088868 0.79767632 -0.62218589
v  0.014586229 0.79767632 -0.62218589
v  0.029765859 0.055746149 0.67554581
v  0.014586229 0.00229618 0.67554581
v  0.029765859 0.00229618 0.67554581
v  0.038031809 0.055746149 0.57858139
v  0.039029408 0.00229618 0.57858133
v  0.038031809 0.00229618 -0.52488691
v  0.038031809 0.055746149 -0.52488691
v  0.031570937 0.055746149 -0.62218589
v  0.016445708 0.0092712594 -0.61306667
v  0.016445708 0.010624019 0.66665959
v  0.016445708 0.79049087 0.66658354
v  0.016445708 0.79105735 -0.61318141
v  0.029283788 0.055746149 -0.52488691
v  0.029283788 0.055746149 0.57858139
v  0.046308618 0.00229618 -0.62120885
v  0.055101655 0.055746149 -0.54983234
v  0.055101655 0.00229618 -0.54983234
v  0.055101655 0.00229618 -0.60655385
v  0.055101655 0.055746149 -0.60655385
v  0.055101655 0.00229618 0.60352677
v  0.055101655 0.055746149 0.60352677
v  0.055101655 0.055746149 0.65991372
v  0.055101655 0.00229618 0.65991366
v  0.029283788 0.055746149 0.58789474
v  0.029283788 0.055746149 -0.53420025
v  0.041379187 0.00229618 -0.52671325
v  0.041379198 0.055746149 -0.52671325
v  0.041379187 0.055746149 0.58040774
v  0.042376798 0.00229618 0.58040774
v  0.054124661 0.00229618 -0.61427367
v  0.054124661 0.055746149 -0.61339283
v  0.054124661 0.055746149 0.66675276
v  0.054124661 0.00229618 0.66675276
v  0.05119364 0.00229618 -0.61915863
v  0.05119364 0.055746149 -0.61827785
v  0.046308618 0.055746149 -0.62120885
v  0.05119364 0.055746149 0.67163777
v  0.05119364 0.00229618 0.67163777
v  0.046308618 0.055746149 0.67456877
v  0.046308618 0.00229618 0.67456877
v  0.010913678 0.00229618 -0.61851329
v  0.010913678 0.00229618 0.67187327
v  0.010913678 0.0048075099 0.67286605
v  0.010913678 0.010624019 0.66665959
v  0.010913678 0.0092712594 -0.61306667
v  0.010913678 0.00452739 -0.61926877
v  0.010913678 0.79049087 0.66658354
v  0.010913678 0.79537898 0.67268044
v  0.010913678 0.79105735 -0.61318141
v  0.010913678 0.79550117 -0.61922675
v  0.030763458 0.00229618 0.5793131
v  0.047382768 0.00229618 -0.53096586
v  0.047382768 0.055746149 -0.53096586
v  0.047382768 0.055746149 0.58466029
v  0.047382768 0.00229618 0.58466029
v  0.051671039 0.00229618 -0.53623652
v  0.05167105 0.055746149 -0.53623652
v  0.054244012 0.00229618 -0.54252535
v  0.054244012 0.055746149 -0.54252535
v  0.051671039 0.055746149 0.58993095
v  0.05167105 0.00229618 0.58993095
v  0.054244012 0.055746149 0.59621984
v  0.054244012 0.00229618 0.59621984
v  0.011655589 0.00229618 0.67194903
v  0.029239479 0.27701929 0.23264691
v  0.029239479 0.27701929 -0.23264687
v  0.06588608 0.27701929 -0.23264687
v  0.06588608 0.27701929 0.23264691
v  0.029239479 0.57134736 0.23264691
v  0.06588608 0.57134736 0.23264691
v  0.06588608 0.57134736 -0.23264687
v  0.029239479 0.57134736 -0.23264687
v  0.029239479 0.28477675 0.24040437
v  0.06588608 0.28477675 0.24040437
v  0.06588608 0.56358993 0.24040437
v  0.029239479 0.56358993 0.24040437
v  0.06588608 0.28477675 -0.24040432
v  0.06588608 0.56358993 -0.24040432
v  0.029239479 0.28477675 -0.24040432
v  0.029239479 0.56358993 -0.24040432
v  0.06588608 0.27895865 -0.23846497
v  0.029239479 0.27895865 -0.23846497
v  0.029239479 0.27895865 0.23846501
v  0.06588608 0.27895865 0.23846501
v  0.06588608 0.569408 0.23846501
v  0.029239479 0.569408 0.23846501
v  0.029239479 0.569408 -0.23846497
v  0.06588608 0.569408 -0.23846497

# 205 UV coordinates
vt 0.003033 0.90718901 0
vt 0.003033 0.91499299 0
vt 0.047908999 0.91416299 0
vt 0.0046890001 0.90582103 0
vt 0.73972201 0.011722 0
vt 0.74462998 0.011722 0
vt 0.74462998 0.397668 0
vt 0.73972201 0.397668 0
vt 0.93551803 0.042688999 0
vt 0.241831 0.043926001 0
vt 0.241831 0.028496999 0
vt 0.985493 0.028496999 0
vt 0.985493 0.042688999 0
vt 0.91689003 0.145568 0
vt 0.91689003 0.18402199 0
vt 0.123024 0.18402199 0
vt 0.123024 0.145568 0
vt 0.132494 0.062001999 0
vt 0.132494 0.079754002 0
vt 0.93059403 0.080271997 0
vt 0.98808998 0.080271997 0
vt 0.98808998 0.062001999 0
vt 0.035994001 0.429472 0
vt 0.82418603 0.43023199 0
vt 0.824139 0.86827302 0
vt 0.035923999 0.86859202 0
vt 0.667647 0.0089450004 0
vt 0.71994698 0.40774301 0
vt 0.022398001 0.40774301 0
vt 0.074518003 0.0089450004 0
vt 0.003481 0.92176402 0
vt 0.047738001 0.917961 0
vt 0.061650999 0.89167303 0
vt 0.061650999 0.886971 0
vt 0.65477997 0.886971 0
vt 0.65477997 0.89167303 0
vt 0.105077 0.145568 0
vt 0.105077 0.18402199 0
vt 0.064269997 0.18402199 0
vt 0.064269997 0.145568 0
vt 0.93483597 0.18402199 0
vt 0.93483597 0.145568 0
vt 0.97540301 0.145568 0
vt 0.97540301 0.18402199 0
vt 0.022398001 0.0089450004 0
vt 0.069512002 0.0089450004 0
vt 0.67265302 0.0089450004 0
vt 0.71994698 0.0089450004 0
vt 0.12171 0.18402199 0
vt 0.12171 0.145568 0
vt 0.91820401 0.145568 0
vt 0.91820401 0.18402199 0
vt 0.65978599 0.886971 0
vt 0.65576202 0.89347303 0
vt 0.060669001 0.89347303 0
vt 0.056644998 0.886971 0
vt 0.058717001 0.18402199 0
vt 0.059349999 0.145568 0
vt 0.98032302 0.145568 0
vt 0.98032302 0.18402199 0
vt 0.055202 0.18402199 0
vt 0.055836 0.145568 0
vt 0.053727001 0.18402199 0
vt 0.053727001 0.145568 0
vt 0.98808998 0.096125998 0
vt 0.93059403 0.096125998 0
vt 0.98383701 0.145568 0
vt 0.98383701 0.18402199 0
vt 0.985946 0.145568 0
vt 0.985946 0.18402199 0
vt 0.93551803 0.058155999 0
vt 0.985493 0.058155999 0
vt 0.84251499 0.88877499 0
vt 0.019363999 0.88877499 0
vt 0.01873 0.887173 0
vt 0.022689 0.88346201 0
vt 0.83904099 0.88432503 0
vt 0.84299701 0.88735098 0
vt 0.022738 0.38597599 0
vt 0.018849 0.38285801 0
vt 0.83911401 0.38561499 0
vt 0.84297001 0.38277999 0
vt 0.98179901 0.20316499 0
vt 0.037882 0.20316499 0
vt 0.037882 0.199085 0
vt 0.98179901 0.199085 0
vt 0.067487001 0.12688801 0
vt 0.98546201 0.12688801 0
vt 0.98546201 0.120376 0
vt 0.067487001 0.120376 0
vt 0.050669 0.221568 0
vt 0.98577499 0.221568 0
vt 0.98577499 0.217526 0
vt 0.050669 0.217526 0
vt 0.97909498 0.111095 0
vt 0.108764 0.111095 0
vt 0.108764 0.104936 0
vt 0.97909498 0.104936 0
vt 0.555076 0.91462201 0
vt 0.55474001 0.91842002 0
vt 0.59884202 0.92176402 0
vt 0.59929103 0.91416401 0
vt 0.118651 0.18402199 0
vt 0.118651 0.145568 0
vt 0.92126298 0.145568 0
vt 0.92126298 0.18402199 0
vt 0.114859 0.18402199 0
vt 0.114859 0.145568 0
vt 0.110334 0.18402199 0
vt 0.110334 0.145568 0
vt 0.92505503 0.145568 0
vt 0.92505503 0.18402199 0
vt 0.92957902 0.145568 0
vt 0.92957902 0.18402199 0
vt 0.009877 0.89612198 0
vt 0.0093510002 0.888201 0
vt 0.058382999 0.89670002 0
vt 0.055550002 0.899005 0
vt 0.011452 0.89874798 0
vt 0.052170001 0.900388 0
vt 0.014078 0.90032297 0
vt 0.048241999 0.90084898 0
vt 0.017754 0.90084898 0
vt 0.0044229999 0.92400903 0
vt 0.046898998 0.91949898 0
vt 0.006668 0.92535502 0
vt 0.044945002 0.92225802 0
vt 0.010215 0.92580402 0
vt 0.042523 0.92422801 0
vt 0.036276001 0.92580402 0
vt 0.039634001 0.92540997 0
vt 0.55557901 0.919958 0
vt 0.59749597 0.92400903 0
vt 0.55753303 0.92225802 0
vt 0.59525102 0.92535502 0
vt 0.59210902 0.92580402 0
vt 0.559955 0.92422801 0
vt 0.56620097 0.92580402 0
vt 0.56284398 0.92540997 0
vt 0.706375 0.89612198 0
vt 0.7069 0.88722998 0
vt 0.704799 0.89874798 0
vt 0.65804797 0.89670002 0
vt 0.66088098 0.899005 0
vt 0.70217299 0.90032399 0
vt 0.66818899 0.90084898 0
vt 0.66426098 0.900388 0
vt 0.698497 0.90084898 0
vt 0.59929103 0.90718901 0
vt 0.59763902 0.90584201 0
vt 0.59760398 0.90550202 0
vt 0.0047200001 0.90550101 0
vt 0.079636 0.049904998 0
vt 0.457293 0.049904998 0
vt 0.457293 0.058369 0
vt 0.079636 0.058369 0
vt 0.457293 0.062816001 0
vt 0.457293 0.071280003 0
vt 0.079636 0.071280003 0
vt 0.079636 0.062816001 0
vt 0.457293 0.316199 0
vt 0.457293 0.32466301 0
vt 0.230993 0.32466301 0
vt 0.230993 0.316199 0
vt 0.073339 0.308323 0
vt 0.073339 0.082024001 0
vt 0.46358901 0.082024001 0
vt 0.46358901 0.308323 0
vt 0.457293 0.325883 0
vt 0.457293 0.33434701 0
vt 0.230993 0.33434701 0
vt 0.230993 0.325883 0
vt 0.459564 0.325883 0
vt 0.46183601 0.325883 0
vt 0.46183601 0.33434701 0
vt 0.459564 0.33434701 0
vt 0.459564 0.316199 0
vt 0.46183601 0.316199 0
vt 0.46183601 0.32466301 0
vt 0.459564 0.32466301 0
vt 0.22872201 0.32466301 0
vt 0.22645 0.32466301 0
vt 0.22645 0.316199 0
vt 0.22872201 0.316199 0
vt 0.22872201 0.33434701 0
vt 0.22645 0.33434701 0
vt 0.22645 0.325883 0
vt 0.22872201 0.325883 0
vt 0.457293 0.075727001 0
vt 0.462015 0.077301003 0
vt 0.074914001 0.077301003 0
vt 0.079636 0.075727001 0
vt 0.079636 0.314619 0
vt 0.074914001 0.313045 0
vt 0.462015 0.313045 0
vt 0.457293 0.314619 0
vt 0.59811801 0.91099101 0
vt 0.84255999 0.88909101 0
vt 0.844868 0.89045101 0
vt 0.84485799 0.37969601 0
vt 0.01702 0.379742 0
vt 0.015498 0.381392 0
vt 0.015536 0.88877499 0
vt 0.84638399 0.88877499 0
vt 0.84637803 0.38139299 0

# 88 vertex normals
vn 0 -0.0099999998 0
vn 0 0.0099999998 0
vn 0.00019652999 0 0.0099980701
vn 0 0 0.0099999998
vn 0.00029492 0 0.0099956496
vn 0.0099983597 0.00018085999 -8.7599992e-06
vn 0.0099982498 0.00018660999 -9.0399999e-06
vn 0.0099999998 5.7500001e-06 -2.7999999e-07
vn 0.0099999998 0 0
vn 0 0 -0.0099999998
vn 0.00022063 0 -0.00999757
vn 0.00033093002 0 -0.0099945199
vn -0.0099999998 0 0
vn 0.00999997 -2.4329998e-05 0
vn 0.0099999597 -2.2009999e-05 1.953e-05
vn 0.00999997 -2.3839999e-05 -4.1199996e-06
vn 0.0099829398 0 0.00058386999
vn 0.0099797798 9.5199994e-06 -0.00063556002
vn 0.0099748401 0 -0.00070889003
vn 0.0099829398 0 -0.00058386999
vn 0.0099748401 0 0.00070889003
vn 0.0099998303 -1.783e-05 -5.4999997e-05
vn 0.0099999495 -2.1319998e-05 -2.544e-05
vn 0.0099992696 -1.008e-05 0.00012016999
vn 0.00999662 6.4999999e-06 0.00025986001
vn 0.00478948 0 0.0087784296
vn 0.0047894898 0 0.0087784203
vn 0.0052939099 0 0.0084837796
vn 0.0052938997 0 0.0084837899
vn 0.00478944 8.939e-05 -0.0087779993
vn 0.0047892998 8.9399997e-05 -0.0087780701
vn 0.0053177294 4.9939998e-05 -0.0084687192
vn 0.0056695002 0.00010582 -0.0082368497
vn 0.0094433194 5.4199998e-05 -0.00328949
vn 0.0094325794 4.381e-05 -0.0033203301
vn 0.0094236797 0 0.0033457801
vn 0.0094236797 0 0.0033457698
vn 0.0065678102 4.9269998e-05 -0.0075406497
vn 0.0070833098 0.00011629999 -0.00705784
vn 0.00229716 0 -0.0097325798
vn 0.0029438299 6.808e-05 -0.0095566297
vn 0.0070710499 0 0.0070710802
vn 0.0070710597 0 0.0070710699
vn 0.0029523701 0 0.0095542399
vn 0 0.0099999895 -1.057e-05
vn 0 -9.6999997e-07 -0.0099999998
vn 0 -0.0099999998 -4.43e-06
vn 0 1.4699999e-06 0.0099999998
vn 0.0068314499 0 0.00730283
vn 0.0068314099 0 -0.0073028598
vn 0.0071187899 5.5429999e-05 -0.0070227999
vn 0.0085992804 0 0.0051041595
vn 0.0096826702 0 0.0024991999
vn 0.0096826702 0 0.0024991899
vn 0.0085992897 0 -0.0051041399
vn 0.0096826702 0 -0.0024991799
vn -9.9999999e-09 -0.0099999998 -0
vn 0 -0.0098708803 0.00160181
vn 0 -0.0098708803 -0.00160181
vn 0 0.0098708803 0.00160181
vn 0 0.0098708803 -0.00160181
vn 0 -0.00160181 0.0098708803
vn 0 0.00160181 0.0098708803
vn 0 -0.00160181 -0.0098708803
vn 0 0.00160181 -0.0098708803
vn 0 -0.0094868392 -0.0031622599
vn 0 -0.0094868392 0.0031622599
vn 0 0.0094868392 0.0031622599
vn 0 0.0094868392 -0.0031622599
vn 0 -0.0031622599 -0.0094868392
vn 0 -0.0031622599 0.0094868392
vn 0 0.0031622599 0.0094868392
vn 0 0.0031622599 -0.0094868392
vn -0.0062155495 -0.0015328199 0.0076822797
vn -0.0063218097 -0.0010528 0.0076763495
vn -0.0054616202 -0.00635149 0.0054616099
vn -0.0045272098 -0.0038896501 -0.0080234101
vn -0.00090166996 -0.0031939799 -0.0094332099
vn -0.0062839501 -0.0016423499 -0.0076035997
vn -0.0066221897 -0.0012375299 -0.0073901997
vn -0.0050962102 0.0086039901 8.0999996e-07
vn -0.00509548 0.0086044194 8.0999996e-07
vn -0.0053028897 0.0084781703 0
vn -0.0053032101 0.00847797 0
vn -0.00615077 1.84e-06 0.00788467
vn -0.0061520804 1.8499999e-06 0.0078836503
vn -0.0062740198 0 -0.0077869496
vn -0.0062741796 0 -0.0077868197

# Mesh 'aws_TV_01_visualMesh' with 174 faces
g aws_TV_01_visualMesh
usemtl MaterialFBXASC032FBXASC03529
f  1/1/1 2/2/1 3/3/1
f  3/3/1 4/4/1 1/1/1
f  5/5/2 6/6/2 7/7/2
f  7/7/2 8/8/2 5/5/2
f  9/9/3 6/10/4 5/11/4
f  5/11/4 10/12/4 11/13/5
f  9/9/3 5/11/4 11/13/5
f  12/14/6 13/15/7 14/16/8
f  14/16/8 15/17/9 12/14/6
f  8/18/10 7/19/10 16/20/11
f  16/20/11 2/21/12 1/22/10
f  8/18/10 16/20/11 1/22/10
f  17/23/13 18/24/13 19/25/13
f  19/25/13 20/26/13 17/23/13
f  21/27/14 7/28/15 6/29/16
f  6/29/16 22/30/14 21/27/14
f  3/3/1 2/2/1 23/31/1
f  23/31/1 14/32/1 3/3/1
f  15/33/2 21/34/2 22/35/2
f  22/35/2 12/36/2 15/33/2
f  24/37/17 25/38/17 26/39/18
f  26/39/18 27/40/19 24/37/17
f  28/41/20 29/42/20 30/43/21
f  30/43/21 31/44/21 28/41/20
f  6/29/16 9/45/22 32/46/23
f  33/47/24 16/48/25 7/28/15
f  15/17/26 14/16/27 34/49/28
f  34/49/28 35/50/29 15/17/26
f  13/15/30 12/14/31 36/51/32
f  36/51/32 37/52/33 13/15/30
f  6/29/16 32/46/23 22/30/14
f  21/27/14 33/47/24 7/28/15
f  12/36/2 22/35/2 32/53/2
f  32/53/2 36/54/2 12/36/2
f  21/34/2 15/33/2 35/55/2
f  35/55/2 33/56/2 21/34/2
f  26/39/18 38/57/34 39/58/35
f  39/58/35 27/40/19 26/39/18
f  30/43/21 40/59/36 41/60/37
f  41/60/37 31/44/21 30/43/21
f  38/57/34 42/61/38 43/62/39
f  43/62/39 39/58/35 38/57/34
f  42/61/38 23/63/40 44/64/41
f  44/64/41 43/62/39 42/61/38
f  23/65/40 2/21/12 16/20/11
f  16/20/11 44/66/41 23/65/40
f  40/59/36 45/67/42 46/68/43
f  46/68/43 41/60/37 40/59/36
f  45/67/42 47/69/44 48/70/44
f  48/70/44 46/68/43 45/67/42
f  47/71/44 9/9/3 11/13/5
f  11/13/5 48/72/44 47/71/44
f  49/73/13 50/74/13 51/75/13
f  49/73/13 51/75/13 52/76/13
f  52/76/13 53/77/13 54/78/13
f  49/73/13 52/76/13 54/78/13
f  55/79/13 52/76/13 51/75/13
f  51/75/13 56/80/13 55/79/13
f  57/81/13 55/79/13 56/80/13
f  56/80/13 58/82/13 57/81/13
f  53/77/13 57/81/13 58/82/13
f  58/82/13 54/78/13 53/77/13
f  18/83/45 17/84/45 53/85/45
f  53/85/45 52/86/45 18/83/45
f  19/87/46 18/88/46 52/89/46
f  52/89/46 55/90/46 19/87/46
f  20/91/47 19/92/47 55/93/47
f  55/93/47 57/94/47 20/91/47
f  17/95/48 20/96/48 57/97/48
f  57/97/48 53/98/48 17/95/48
f  59/99/1 13/100/1 48/101/1
f  48/101/1 11/102/1 59/99/1
f  34/49/28 60/103/49 61/104/49
f  61/104/49 35/50/29 34/49/28
f  36/51/32 62/105/50 63/106/51
f  63/106/51 37/52/33 36/51/32
f  60/103/49 64/107/52 65/108/52
f  65/108/52 61/104/49 60/103/49
f  64/107/52 66/109/53 67/110/54
f  67/110/54 65/108/52 64/107/52
f  66/109/53 25/38/17 24/37/17
f  24/37/17 67/110/54 66/109/53
f  62/105/50 68/111/55 69/112/55
f  69/112/55 63/106/51 62/105/50
f  68/111/55 70/113/56 71/114/56
f  71/114/56 69/112/55 68/111/55
f  70/113/56 29/42/20 28/41/20
f  28/41/20 71/114/56 70/113/56
f  44/115/2 16/116/2 33/56/2
f  33/56/2 35/55/2 61/117/2
f  44/115/2 33/56/2 61/117/2
f  44/115/2 61/117/2 65/118/2
f  65/118/2 43/119/2 44/115/2
f  43/119/2 65/118/2 67/120/2
f  67/120/2 39/121/2 43/119/2
f  39/121/2 67/120/2 24/122/2
f  24/122/2 27/123/2 39/121/2
f  14/32/1 23/31/1 42/124/1
f  42/124/1 34/125/1 14/32/1
f  34/125/1 42/124/1 38/126/1
f  38/126/1 60/127/1 34/125/1
f  60/127/1 38/126/1 26/128/1
f  26/128/1 64/129/1 60/127/1
f  64/129/1 26/128/1 25/130/1
f  25/130/1 66/131/1 64/129/1
f  48/101/1 13/100/1 37/132/1
f  37/132/1 46/133/1 48/101/1
f  46/133/1 37/132/1 63/134/57
f  63/134/57 41/135/1 46/133/1
f  31/136/1 41/135/1 63/134/57
f  63/134/57 69/137/1 31/136/1
f  28/138/1 31/136/1 69/137/1
f  69/137/1 71/139/1 28/138/1
f  47/140/2 36/54/2 32/53/2
f  32/53/2 9/141/2 47/140/2
f  36/54/2 47/140/2 45/142/2
f  45/142/2 62/143/2 36/54/2
f  68/144/2 62/143/2 45/142/2
f  45/142/2 40/145/2 68/144/2
f  29/146/2 70/147/2 68/144/2
f  68/144/2 40/145/2 30/148/2
f  29/146/2 68/144/2 30/148/2
f  11/102/1 10/149/1 72/150/1
f  72/150/1 59/99/1 11/102/1
f  3/3/1 14/32/1 13/100/1
f  13/100/1 59/99/1 3/3/1
f  59/99/1 72/150/1 50/151/1
f  50/151/1 49/152/1 4/4/1
f  59/99/1 50/151/1 4/4/1
f  59/99/1 4/4/1 3/3/1
f  73/153/58 74/154/59 75/155/59
f  75/155/59 76/156/58 73/153/58
f  77/157/60 78/158/60 79/159/61
f  79/159/61 80/160/61 77/157/60
f  81/161/62 82/162/62 83/163/63
f  83/163/63 84/164/63 81/161/62
f  85/165/9 86/166/9 83/167/9
f  83/167/9 82/168/9 85/165/9
f  85/169/64 87/170/64 88/171/65
f  88/171/65 86/172/65 85/169/64
f  89/173/66 75/174/59 74/175/59
f  74/175/59 90/176/66 89/173/66
f  91/177/67 73/178/58 76/179/58
f  76/179/58 92/180/67 91/177/67
f  93/181/68 78/182/60 77/183/60
f  77/183/60 94/184/68 93/181/68
f  95/185/69 80/186/61 79/187/61
f  79/187/61 96/188/69 95/185/69
f  85/169/64 89/173/70 90/176/70
f  90/176/70 87/170/64 85/169/64
f  81/161/62 91/177/71 92/180/71
f  92/180/71 82/162/62 81/161/62
f  83/163/63 93/181/72 94/184/72
f  94/184/72 84/164/63 83/163/63
f  88/171/65 95/185/73 96/188/73
f  96/188/73 86/172/65 88/171/65
f  78/189/9 93/190/9 83/167/9
f  86/166/9 96/191/9 79/192/9
f  75/193/9 89/194/9 85/165/9
f  82/168/9 92/195/9 76/196/9
f  79/192/9 78/189/9 83/167/9
f  83/167/9 86/166/9 79/192/9
f  76/196/9 75/193/9 85/165/9
f  85/165/9 82/168/9 76/196/9
f  10/149/74 51/197/75 50/151/76
f  50/151/76 72/150/1 10/149/74
f  4/198/77 49/73/78 54/78/79
f  54/78/79 1/199/80 4/198/77
f  8/200/81 58/82/82 56/80/83
f  56/80/83 5/201/84 8/200/81
f  5/202/85 56/80/86 51/75/75
f  51/75/75 10/203/74 5/202/85
f  1/204/80 54/78/79 58/82/87
f  58/82/87 8/205/88 1/204/80

