# File produced by Open Asset Import Library (http://www.assimp.sf.net)
# (assimp v5.0.639693989)

mtllib material.mtl

# 208 vertex positions
v  -0.0242169 0 0.0044540865
v  -0.0242169 0 -0.043429945
v  0.0242169 0 -0.043429945
v  0.0242169 0 0.0044540865
v  -0.032758616 0.17496337 0.012807915
v  0.032758616 0.17496337 0.012807915
v  0.032758616 0.17496337 -0.051783774
v  -0.032758616 0.17496337 -0.051783774
v  0.024454758 0.0021187817 0.0074648983
v  0.032291792 0.10854094 0.016102498
v  -0.032291792 0.10854094 0.016102498
v  -0.024454758 0.0021187817 0.0074648983
v  0.027811915 0.0021189968 0.0046762498
v  0.027811915 0.0021189968 -0.043652102
v  0.036724806 0.10854094 -0.051396001
v  0.036724806 0.10854094 0.012420145
v  0.024454758 0.0021187817 -0.046440754
v  -0.024454758 0.0021187817 -0.046440754
v  -0.032291792 0.10854094 -0.055078357
v  0.032291792 0.10854094 -0.055078357
v  -0.027811915 0.0021189968 -0.043652102
v  -0.027811915 0.0021189968 0.0046762498
v  -0.036724806 0.10854094 0.012420145
v  -0.036724806 0.10854094 -0.051396001
v  0.032291792 0.17283286 0.016102498
v  -0.032291792 0.17283286 0.016102498
v  0.036724806 0.17283286 -0.051396001
v  0.036724806 0.17283286 0.012420145
v  -0.032291792 0.17283286 -0.055078357
v  0.032291792 0.17283286 -0.055078357
v  -0.036724806 0.17283286 0.012420145
v  -0.036724806 0.17283286 -0.051396001
v  -0.0074660191 0.058387067 0.011125428
v  0.012683011 0.058387067 0.011125428
v  0.01384567 0.058387067 0.013536945
v  0.01384567 0.058387071 0.054737646
v  0.012683011 0.058387071 0.057149086
v  -0.0074660322 0.058387071 0.057149086
v  -0.008628685 0.058387071 0.054737646
v  -0.008628672 0.058387067 0.013536945
v  -0.008628672 0.08989083 0.016411094
v  -0.008628685 0.089890838 0.054737646
v  -0.0074660322 0.089890838 0.057149086
v  0.012683011 0.089890838 0.057149075
v  0.01384567 0.089890838 0.054737646
v  0.01384567 0.08989083 0.016411094
v  0.012683011 0.08989083 0.013999576
v  -0.0074660191 0.08989083 0.013999576
v  -0.032807793 0.15571721 0.018173223
v  0.032807793 0.15571721 0.018173223
v  0.027822096 0.15571721 0.014031762
v  -0.027822096 0.15571721 0.014031762
v  -0.032807793 0.1514245 0.018173223
v  0.032807793 0.1514245 0.018173223
v  -0.027822096 0.1514245 0.014031762
v  0.027822096 0.1514245 0.014031762
v  -0.039217651 0.15571721 -0.051824618
v  -0.039217651 0.15571721 0.012848763
v  -0.034231957 0.15571721 0.0087073073
v  -0.034231957 0.15571721 -0.047683164
v  -0.039217651 0.1514245 -0.051824618
v  -0.039217651 0.1514245 0.012848763
v  -0.034231957 0.1514245 -0.047683164
v  -0.034231957 0.1514245 0.0087073073
v  0.032807793 0.15571721 -0.057149079
v  -0.032807793 0.15571721 -0.057149079
v  -0.027822096 0.15571721 -0.053007621
v  0.027822096 0.15571721 -0.053007621
v  0.032807793 0.1514245 -0.057149079
v  -0.032807793 0.1514245 -0.057149079
v  0.027822096 0.1514245 -0.053007621
v  -0.027822096 0.1514245 -0.053007621
v  0.039217651 0.15571721 0.012848763
v  0.039217651 0.15571721 -0.051824618
v  0.034231957 0.15571721 -0.047683164
v  0.034231957 0.15571721 0.0087073073
v  0.039217651 0.1514245 0.012848763
v  0.039217651 0.1514245 -0.051824618
v  0.034231957 0.1514245 0.0087073073
v  0.034231957 0.1514245 -0.047683164
v  -0.032807793 0.1415894 0.018173218
v  0.032807793 0.1415894 0.018173218
v  0.027822096 0.1415894 0.014031762
v  -0.027822096 0.1415894 0.014031762
v  -0.032807793 0.13729668 0.018173218
v  0.032807793 0.13729668 0.018173218
v  -0.027822096 0.13729668 0.014031762
v  0.027822096 0.13729668 0.014031762
v  -0.039217651 0.1415894 -0.051824618
v  -0.039217651 0.1415894 0.012848763
v  -0.034231957 0.1415894 0.0087073026
v  -0.034231957 0.1415894 -0.047683161
v  -0.039217651 0.13729668 -0.051824618
v  -0.039217651 0.13729668 0.012848763
v  -0.034231957 0.13729668 -0.047683161
v  -0.034231957 0.13729668 0.0087073026
v  0.032807793 0.1415894 -0.057149075
v  -0.032807793 0.1415894 -0.057149075
v  -0.027822096 0.1415894 -0.053007621
v  0.027822096 0.1415894 -0.053007621
v  0.032807793 0.13729668 -0.057149075
v  -0.032807793 0.13729668 -0.057149075
v  0.027822096 0.13729668 -0.053007621
v  -0.027822096 0.13729668 -0.053007621
v  0.039217651 0.1415894 0.012848763
v  0.039217651 0.1415894 -0.051824618
v  0.034231957 0.1415894 -0.047683161
v  0.034231957 0.1415894 0.0087073026
v  0.039217651 0.13729668 0.012848763
v  0.039217651 0.13729668 -0.051824618
v  0.034231957 0.13729668 0.0087073026
v  0.034231957 0.13729668 -0.047683161
v  -0.032807793 0.12854314 0.018173218
v  0.032807793 0.12854314 0.018173218
v  0.027822096 0.12854314 0.014031762
v  -0.027822096 0.12854314 0.014031762
v  -0.032807793 0.12425041 0.018173218
v  0.032807793 0.12425041 0.018173218
v  -0.027822096 0.12425041 0.014031762
v  0.027822096 0.12425041 0.014031762
v  -0.039217651 0.12854314 -0.051824618
v  -0.039217651 0.12854314 0.012848763
v  -0.034231957 0.12854314 0.0087073026
v  -0.034231957 0.12854314 -0.047683161
v  -0.039217651 0.12425041 -0.051824618
v  -0.039217651 0.12425041 0.012848763
v  -0.034231957 0.12425041 -0.047683161
v  -0.034231957 0.12425041 0.0087073026
v  0.032807793 0.12854314 -0.057149075
v  -0.032807793 0.12854314 -0.057149075
v  -0.027822096 0.12854314 -0.053007621
v  0.027822096 0.12854314 -0.053007621
v  0.032807793 0.12425041 -0.057149075
v  -0.032807793 0.12425041 -0.057149075
v  0.027822096 0.12425041 -0.053007621
v  -0.027822096 0.12425041 -0.053007621
v  0.039217651 0.12854314 0.012848763
v  0.039217651 0.12854314 -0.051824618
v  0.034231957 0.12854314 -0.047683161
v  0.034231957 0.12854314 0.0087073026
v  0.039217651 0.12425041 0.012848763
v  0.039217651 0.12425041 -0.051824618
v  0.034231957 0.12425041 0.0087073026
v  0.034231957 0.12425041 -0.047683161
v  -0.032807793 0.11441535 0.018173212
v  0.032807793 0.11441535 0.018173212
v  0.027822096 0.11441535 0.014031758
v  -0.027822096 0.11441535 0.014031758
v  -0.032807793 0.11012262 0.018173212
v  0.032807793 0.11012262 0.018173212
v  -0.027822096 0.11012262 0.014031758
v  0.027822096 0.11012262 0.014031758
v  -0.039217651 0.11441535 -0.051824614
v  -0.039217651 0.11441535 0.012848758
v  -0.034231957 0.11441535 0.0087073026
v  -0.034231957 0.11441535 -0.047683161
v  -0.039217651 0.11012262 -0.051824614
v  -0.039217651 0.11012262 0.012848758
v  -0.034231957 0.11012262 -0.047683161
v  -0.034231957 0.11012262 0.0087073026
v  0.032807793 0.11441535 -0.057149068
v  -0.032807793 0.11441535 -0.057149068
v  -0.027822096 0.11441535 -0.053007614
v  0.027822096 0.11441535 -0.053007614
v  0.032807793 0.11012262 -0.057149068
v  -0.032807793 0.11012262 -0.057149068
v  0.027822096 0.11012262 -0.053007614
v  -0.027822096 0.11012262 -0.053007614
v  0.039217651 0.11441535 0.012848758
v  0.039217651 0.11441535 -0.051824614
v  0.034231957 0.11441535 -0.047683161
v  0.034231957 0.11441535 0.0087073026
v  0.039217651 0.11012262 0.012848758
v  0.039217651 0.11012262 -0.051824614
v  0.034231957 0.11012262 0.0087073026
v  0.034231957 0.11012262 -0.047683161
v  -0.025619583 0.007123787 0.0099216206
v  0.025619583 0.007123787 0.0099216206
v  0.021726247 0.007123787 0.0066875648
v  -0.021726247 0.007123787 0.0066875648
v  -0.025619583 0.0037716047 0.0099216206
v  0.025619583 0.0037716047 0.0099216206
v  -0.021726247 0.0037716047 0.0066875648
v  0.021726247 0.0037716047 0.0066875648
v  -0.030625036 0.007123787 -0.044739608
v  -0.030625036 0.007123787 0.0057637547
v  -0.0267317 0.007123787 0.0025296989
v  -0.0267317 0.007123787 -0.041505557
v  -0.030625036 0.0037716047 -0.044739608
v  -0.030625036 0.0037716047 0.0057637547
v  -0.0267317 0.0037716047 -0.041505557
v  -0.0267317 0.0037716047 0.0025296989
v  0.025619583 0.007123787 -0.048897471
v  -0.025619583 0.007123787 -0.048897471
v  -0.021726247 0.007123787 -0.045663424
v  0.021726247 0.007123787 -0.045663424
v  0.025619583 0.0037716047 -0.048897471
v  -0.025619583 0.0037716047 -0.048897471
v  0.021726247 0.0037716047 -0.045663424
v  -0.021726247 0.0037716047 -0.045663424
v  0.030625036 0.007123787 0.0057637547
v  0.030625036 0.007123787 -0.044739608
v  0.0267317 0.007123787 -0.041505557
v  0.0267317 0.007123787 0.0025296989
v  0.030625036 0.0037716047 0.0057637547
v  0.030625036 0.0037716047 -0.044739608
v  0.0267317 0.0037716047 0.0025296989
v  0.0267317 0.0037716047 -0.041505557

# 122 UV coordinates
vt 0.070439003 0.628546 0
vt 0.070439003 0.89889097 0
vt 0.30477899 0.89889097 0
vt 0.30477899 0.628546 0
vt 0.029112 0.58138198 0
vt 0.34610599 0.58138198 0
vt 0.34610599 0.94605601 0
vt 0.029112 0.94605601 0
vt 0.29468799 0.104252 0
vt 0.32506299 0.636145 0
vt 0.045193002 0.63271803 0
vt 0.086227 0.101347 0
vt 0.086227 0.101348 0
vt 0.29468799 0.104253 0
vt 0.32103401 0.95626199 0
vt 0.041145001 0.95338702 0
vt 0.29102299 0.095394999 0
vt 0.089432999 0.092771001 0
vt 0.29084101 0.036903001 0
vt 0.090666004 0.034297001 0
vt 0.045736998 0.989658 0
vt 0.316735 0.99264997 0
vt 0.045267999 0.96302003 0
vt 0.317682 0.96602798 0
vt 0.061276 0.638345 0
vt 0.077518001 0.62259901 0
vt 0.297699 0.62259901 0
vt 0.31394199 0.638345 0
vt 0.077518001 0.90483803 0
vt 0.061276 0.88909298 0
vt 0.31394199 0.88909298 0
vt 0.297699 0.90483803 0
vt 0.024954 0.553491 0
vt 0.0035059999 0.57428098 0
vt 0.371712 0.57428098 0
vt 0.35026401 0.553491 0
vt 0.0035059999 0.95315701 0
vt 0.024954 0.97394699 0
vt 0.35026401 0.97394699 0
vt 0.371712 0.95315701 0
vt 0.94099998 1.050702 0
vt 0.75455803 1.050702 0
vt 0.74379897 0.977494 0
vt 0.74379998 -0.089047 0
vt 0.75455803 -0.162255 0
vt 0.94099998 -0.162255 0
vt 0.95175803 -0.089047 0
vt 0.95175803 0.977494 0
vt 0.74379897 1.018154 0
vt 0.74379897 0.98795199 0
vt 0.95175803 0.98795199 0
vt 0.95175803 1.018154 0
vt 0.95175803 -0.13435601 0
vt 0.74379998 -0.13435601 0
vt 0.935013 -0.063165002 0
vt 0.959912 -0.063165002 0
vt 0.959912 0.93683499 0
vt 0.935013 0.93683499 0
vt 0.68737698 0.147475 0
vt 0.68737698 0.890724 0
vt 0.67177302 0.83424997 0
vt 0.67177302 0.20395 0
vt 0.45741999 0.72757602 0
vt 0.66278601 0.72757602 0
vt 0.66278601 0.784051 0
vt 0.45741999 0.784051 0
vt 0.41954699 0.201335 0
vt 0.41954699 0.831635 0
vt 0.403943 0.88810998 0
vt 0.403943 0.14486 0
vt 0.42363599 0.074868001 0
vt 0.66731501 0.074868001 0
vt 0.65171099 0.13134301 0
vt 0.43924001 0.13134301 0
vt 0.663176 0.78422499 0
vt 0.419496 0.78422499 0
vt 0.419496 0.72775 0
vt 0.663176 0.72775 0
vt 0.65208 0.128728 0
vt 0.43960899 0.128728 0
vt 0.42400399 0.072253004 0
vt 0.66768402 0.072253004 0
vt 0.40357399 0.890724 0
vt 0.40357399 0.147475 0
vt 0.41917801 0.20395 0
vt 0.41917801 0.83424997 0
vt 0.45741999 0.78476298 0
vt 0.66278601 0.78476298 0
vt 0.66278601 0.84123802 0
vt 0.45741999 0.84123802 0
vt 0.67214203 0.831635 0
vt 0.67214203 0.201335 0
vt 0.68774599 0.14486 0
vt 0.68774599 0.88810998 0
vt 0.66731501 0.96333098 0
vt 0.42363599 0.96333098 0
vt 0.43924001 0.90685701 0
vt 0.65171099 0.90685701 0
vt 0.663176 0.84845901 0
vt 0.419496 0.84845901 0
vt 0.419496 0.79198402 0
vt 0.663176 0.79198402 0
vt 0.43960899 0.90424198 0
vt 0.65208 0.90424198 0
vt 0.66768402 0.96071601 0
vt 0.42400399 0.96071601 0
vt 0.66321999 0.79054201 0
vt 0.634848 0.79054201 0
vt 0.634848 0.73406702 0
vt 0.66321999 0.73406702 0
vt 0.63484699 0.78915298 0
vt 0.66321898 0.78915298 0
vt 0.66321898 0.84562701 0
vt 0.63484699 0.84562701 0
vt 0.66321898 0.78843999 0
vt 0.63484699 0.78843999 0
vt 0.63484699 0.73196501 0
vt 0.66321898 0.73196501 0
vt 0.66321999 0.84772998 0
vt 0.634848 0.84772998 0
vt 0.634848 0.791255 0
vt 0.66321999 0.791255 0

# 60 vertex normals
vn -0.001702414 -0.0051174811 0.0014052209
vn -0.001702414 -0.0051174811 -0.0014052209
vn 0.001702414 -0.0051174811 -0.0014052209
vn 0.001702414 -0.0051174811 0.0014052209
vn -0.0017496995 0.0050911284 0.0014534178
vn 0.0017496995 0.0050911284 0.0014534178
vn 0.0017496995 0.0050911284 -0.0014534178
vn -0.0017496995 0.0050911284 -0.0014534178
vn 0.0020611803 -0.002568454 0.0043906933
vn 0.002467809 -0.00027737088 0.0049067349
vn -0.0024678155 -0.00027737088 0.0049067349
vn -0.0020611803 -0.002568454 0.0043906933
vn 0.0053028842 -0.0025463672 0.0017062818
vn 0.0053028842 -0.0025463672 -0.0017062818
vn 0.0059033404 -0.00026070367 -0.002059187
vn 0.0059033404 -0.00026070367 0.002059187
vn 0.0020611803 -0.002568454 -0.0043906933
vn -0.0020611803 -0.002568454 -0.0043906933
vn -0.002467809 -0.00027737088 -0.0049067349
vn 0.0024678155 -0.00027737088 -0.0049067349
vn -0.0053028842 -0.0025463672 -0.0017062818
vn -0.0053028842 -0.0025463672 0.0017062818
vn -0.0059033404 -0.00026070367 0.002059187
vn -0.0059033404 -0.00026070367 -0.002059187
vn 0.0020790959 0.0023519348 0.004496512
vn -0.0020790959 0.0023519348 0.004496512
vn 0.0054131337 0.0023519348 -0.0017270365
vn 0.0054131337 0.0023519348 0.0017270365
vn -0.0020790959 0.0023519348 -0.004496512
vn 0.0020790959 0.0023519348 -0.004496512
vn -0.0054131337 0.0023519348 0.0017270365
vn -0.0054131337 0.0023519348 -0.0017270365
vn 0 -0.0055189398 0
vn 0 0.0055189398 0
vn 6.4098602e-09 0.0055189398 0
vn -0.0062789386 0.00010447353 -0.001065877
vn -0.0062939445 0 0.0010080162
vn -0.0063062385 9.3049326e-05 -0.00094928202
vn 0.0062939445 0 0.0010080214
vn 0.0062789386 0.00010447353 -0.0010658824
vn 0.0063062385 9.3049326e-05 -0.00094928732
vn 0.006293938 0 0.0010080268
vn -0.0059467349 0.00019390795 -0.001978298
vn -0.0059467349 0.00019390795 -0.0019783031
vn 0.0059503759 0 0.0019795864
vn 0.0059503759 0 0.0019795969
vn -0.0059503824 0 0.0019795811
vn 0.0059467289 0.00019390795 -0.0019783084
vn 0 0 0.0053244601
vn -0.0064098602 0 0
vn 0 0 -0.0053244601
vn 0.0064098602 0 0
vn -0.0045324569 0 0.003764963
vn 0.0045324569 0 0.003764963
vn -0.0045324569 0 -0.003764963
vn 0.0045324569 0 -0.003764963
vn -0.0045324508 0 0.003764963
vn 0.0045324508 0 0.003764963
vn -0.0045324508 0 -0.003764963
vn 0.0045324508 0 -0.003764963

# Mesh 'aws_LightC_01_visualMesh' with 324 faces
g aws_LightC_01_visualMesh
usemtl Material #90
f  1/1/1 2/2/2 3/3/3
f  3/3/3 4/4/4 1/1/1
f  5/5/5 6/6/6 7/7/7
f  7/7/7 8/8/8 5/5/5
f  9/9/9 10/10/10 11/11/11
f  11/11/11 12/12/12 9/9/9
f  13/13/13 14/14/14 15/10/15
f  15/10/15 16/11/16 13/13/13
f  17/12/17 18/9/18 19/10/19
f  19/10/19 20/11/20 17/12/17
f  21/13/21 22/14/22 23/10/23
f  23/10/23 24/11/24 21/13/21
f  25/15/25 26/16/26 11/11/11
f  11/11/11 10/10/10 25/15/25
f  27/15/27 28/16/28 16/11/16
f  16/11/16 15/10/15 27/15/27
f  29/15/29 30/16/30 20/11/20
f  20/11/20 19/10/19 29/15/29
f  31/15/31 32/16/32 24/11/24
f  24/11/24 23/10/23 31/15/31
f  26/15/26 31/15/31 23/10/23
f  23/10/23 11/10/11 26/15/26
f  15/11/15 20/11/20 30/16/30
f  30/16/30 27/16/27 15/11/15
f  10/11/10 16/11/16 28/16/28
f  28/16/28 25/16/25 10/11/10
f  19/11/19 24/11/24 32/16/32
f  32/16/32 29/16/29 19/11/19
f  14/13/14 17/12/17 20/11/20
f  20/11/20 15/11/15 14/13/14
f  9/12/9 13/13/13 16/11/16
f  16/11/16 10/11/10 9/12/9
f  11/10/11 23/10/23 22/14/22
f  22/14/22 12/9/12 11/10/11
f  18/12/18 21/13/21 24/11/24
f  24/11/24 19/11/19 18/12/18
f  1/17/1 22/14/22 21/13/21
f  21/13/21 2/18/2 1/17/1
f  2/19/2 18/9/18 17/12/17
f  17/12/17 3/20/3 2/19/2
f  3/17/3 14/14/14 13/13/13
f  13/13/13 4/18/4 3/17/3
f  4/19/4 9/9/9 12/12/12
f  12/12/12 1/20/1 4/19/4
f  5/21/5 26/16/26 25/15/25
f  25/15/25 6/22/6 5/21/5
f  6/23/6 28/16/28 27/15/27
f  27/15/27 7/24/7 6/23/6
f  7/21/7 30/16/30 29/15/29
f  29/15/29 8/22/8 7/21/7
f  8/23/8 32/16/32 31/15/31
f  31/15/31 5/24/5 8/23/8
f  22/25/22 1/1/1 12/26/12
f  9/27/9 4/4/4 13/28/13
f  18/29/18 2/2/2 21/30/21
f  14/31/14 3/3/3 17/32/17
f  26/33/26 5/5/5 31/34/31
f  28/35/28 6/6/6 25/36/25
f  32/37/32 8/8/8 29/38/29
f  30/39/30 7/7/7 27/40/27
f  33/41/33 34/42/33 35/43/33
f  35/43/33 36/44/33 37/45/33
f  33/41/33 35/43/33 37/45/33
f  37/45/33 38/46/33 39/47/33
f  33/41/33 37/45/33 39/47/33
f  40/48/33 33/41/33 39/47/33
f  41/47/34 42/48/35 43/41/34
f  43/41/34 44/42/34 45/43/34
f  41/47/34 43/41/34 45/43/34
f  45/43/34 46/44/35 47/45/34
f  41/47/34 45/43/34 47/45/34
f  48/46/34 41/47/34 47/45/34
f  40/47/36 39/48/37 42/43/37
f  42/43/37 41/44/38 40/47/36
f  36/47/39 35/48/40 46/43/41
f  46/43/41 45/44/42 36/47/39
f  41/49/38 48/50/43 33/51/44
f  33/51/44 40/52/36 41/49/38
f  37/53/45 36/47/39 45/44/42
f  45/44/42 44/54/46 37/53/45
f  39/55/37 38/56/47 43/57/47
f  43/57/47 42/58/37 39/55/37
f  35/55/40 34/56/48 47/57/48
f  47/57/48 46/58/41 35/55/40
f  49/59/34 50/60/34 51/61/34
f  51/61/34 52/62/34 49/59/34
f  53/63/49 54/64/49 50/65/49
f  50/65/49 49/66/49 53/63/49
f  55/67/33 56/68/33 54/69/33
f  54/69/33 53/70/33 55/67/33
f  57/71/34 58/72/34 59/73/34
f  59/73/34 60/74/34 57/71/34
f  61/75/50 62/76/50 58/77/50
f  58/77/50 57/78/50 61/75/50
f  63/79/33 64/80/33 62/81/33
f  62/81/33 61/82/33 63/79/33
f  65/83/34 66/84/34 67/85/34
f  67/85/34 68/86/34 65/83/34
f  69/87/51 70/88/51 66/89/51
f  66/89/51 65/90/51 69/87/51
f  71/91/33 72/92/33 70/93/33
f  70/93/33 69/94/33 71/91/33
f  73/95/34 74/96/34 75/97/34
f  75/97/34 76/98/34 73/95/34
f  77/99/52 78/100/52 74/101/52
f  74/101/52 73/102/52 77/99/52
f  79/103/33 80/104/33 78/105/33
f  78/105/33 77/106/33 79/103/33
f  52/62/34 59/73/34 58/72/34
f  58/72/34 49/59/34 52/62/34
f  50/60/34 73/95/34 76/98/34
f  76/98/34 51/61/34 50/60/34
f  49/107/53 58/108/53 62/109/53
f  62/109/53 53/110/53 49/107/53
f  54/111/54 77/112/54 73/113/54
f  73/113/54 50/114/54 54/111/54
f  53/70/33 62/81/33 64/80/33
f  64/80/33 55/67/33 53/70/33
f  56/68/33 79/103/33 77/106/33
f  77/106/33 54/69/33 56/68/33
f  60/74/34 67/85/34 66/84/34
f  66/84/34 57/71/34 60/74/34
f  57/115/55 66/116/55 70/117/55
f  70/117/55 61/118/55 57/115/55
f  61/82/33 70/93/33 72/92/33
f  72/92/33 63/79/33 61/82/33
f  68/86/34 75/97/34 74/96/34
f  74/96/34 65/83/34 68/86/34
f  65/119/56 74/120/56 78/121/56
f  78/121/56 69/122/56 65/119/56
f  69/94/33 78/105/33 80/104/33
f  80/104/33 71/91/33 69/94/33
f  81/59/34 82/60/34 83/61/34
f  83/61/34 84/62/34 81/59/34
f  85/63/49 86/64/49 82/65/49
f  82/65/49 81/66/49 85/63/49
f  87/67/33 88/68/33 86/69/33
f  86/69/33 85/70/33 87/67/33
f  89/71/34 90/72/34 91/73/34
f  91/73/34 92/74/34 89/71/34
f  93/75/50 94/76/50 90/77/50
f  90/77/50 89/78/50 93/75/50
f  95/79/33 96/80/33 94/81/33
f  94/81/33 93/82/33 95/79/33
f  97/83/34 98/84/34 99/85/34
f  99/85/34 100/86/34 97/83/34
f  101/87/51 102/88/51 98/89/51
f  98/89/51 97/90/51 101/87/51
f  103/91/33 104/92/33 102/93/33
f  102/93/33 101/94/33 103/91/33
f  105/95/34 106/96/34 107/97/34
f  107/97/34 108/98/34 105/95/34
f  109/99/52 110/100/52 106/101/52
f  106/101/52 105/102/52 109/99/52
f  111/103/33 112/104/33 110/105/33
f  110/105/33 109/106/33 111/103/33
f  84/62/34 91/73/34 90/72/34
f  90/72/34 81/59/34 84/62/34
f  82/60/34 105/95/34 108/98/34
f  108/98/34 83/61/34 82/60/34
f  81/107/53 90/108/53 94/109/53
f  94/109/53 85/110/53 81/107/53
f  86/111/54 109/112/54 105/113/54
f  105/113/54 82/114/54 86/111/54
f  85/70/33 94/81/33 96/80/33
f  96/80/33 87/67/33 85/70/33
f  88/68/33 111/103/33 109/106/33
f  109/106/33 86/69/33 88/68/33
f  92/74/34 99/85/34 98/84/34
f  98/84/34 89/71/34 92/74/34
f  89/115/55 98/116/55 102/117/55
f  102/117/55 93/118/55 89/115/55
f  93/82/33 102/93/33 104/92/33
f  104/92/33 95/79/33 93/82/33
f  100/86/34 107/97/34 106/96/34
f  106/96/34 97/83/34 100/86/34
f  97/119/56 106/120/56 110/121/56
f  110/121/56 101/122/56 97/119/56
f  101/94/33 110/105/33 112/104/33
f  112/104/33 103/91/33 101/94/33
f  113/59/34 114/60/34 115/61/34
f  115/61/34 116/62/34 113/59/34
f  117/63/49 118/64/49 114/65/49
f  114/65/49 113/66/49 117/63/49
f  119/67/33 120/68/33 118/69/33
f  118/69/33 117/70/33 119/67/33
f  121/71/34 122/72/34 123/73/34
f  123/73/34 124/74/34 121/71/34
f  125/75/50 126/76/50 122/77/50
f  122/77/50 121/78/50 125/75/50
f  127/79/33 128/80/33 126/81/33
f  126/81/33 125/82/33 127/79/33
f  129/83/34 130/84/34 131/85/34
f  131/85/34 132/86/34 129/83/34
f  133/87/51 134/88/51 130/89/51
f  130/89/51 129/90/51 133/87/51
f  135/91/33 136/92/33 134/93/33
f  134/93/33 133/94/33 135/91/33
f  137/95/34 138/96/34 139/97/34
f  139/97/34 140/98/34 137/95/34
f  141/99/52 142/100/52 138/101/52
f  138/101/52 137/102/52 141/99/52
f  143/103/33 144/104/33 142/105/33
f  142/105/33 141/106/33 143/103/33
f  116/62/34 123/73/34 122/72/34
f  122/72/34 113/59/34 116/62/34
f  114/60/34 137/95/34 140/98/34
f  140/98/34 115/61/34 114/60/34
f  113/107/53 122/108/53 126/109/53
f  126/109/53 117/110/53 113/107/53
f  118/111/54 141/112/54 137/113/54
f  137/113/54 114/114/54 118/111/54
f  117/70/33 126/81/33 128/80/33
f  128/80/33 119/67/33 117/70/33
f  120/68/33 143/103/33 141/106/33
f  141/106/33 118/69/33 120/68/33
f  124/74/34 131/85/34 130/84/34
f  130/84/34 121/71/34 124/74/34
f  121/115/55 130/116/55 134/117/55
f  134/117/55 125/118/55 121/115/55
f  125/82/33 134/93/33 136/92/33
f  136/92/33 127/79/33 125/82/33
f  132/86/34 139/97/34 138/96/34
f  138/96/34 129/83/34 132/86/34
f  129/119/56 138/120/56 142/121/56
f  142/121/56 133/122/56 129/119/56
f  133/94/33 142/105/33 144/104/33
f  144/104/33 135/91/33 133/94/33
f  145/59/34 146/60/34 147/61/34
f  147/61/34 148/62/34 145/59/34
f  149/63/49 150/64/49 146/65/49
f  146/65/49 145/66/49 149/63/49
f  151/67/33 152/68/33 150/69/33
f  150/69/33 149/70/33 151/67/33
f  153/71/34 154/72/34 155/73/34
f  155/73/34 156/74/34 153/71/34
f  157/75/50 158/76/50 154/77/50
f  154/77/50 153/78/50 157/75/50
f  159/79/33 160/80/33 158/81/33
f  158/81/33 157/82/33 159/79/33
f  161/83/34 162/84/34 163/85/34
f  163/85/34 164/86/34 161/83/34
f  165/87/51 166/88/51 162/89/51
f  162/89/51 161/90/51 165/87/51
f  167/91/33 168/92/33 166/93/33
f  166/93/33 165/94/33 167/91/33
f  169/95/34 170/96/34 171/97/34
f  171/97/34 172/98/34 169/95/34
f  173/99/52 174/100/52 170/101/52
f  170/101/52 169/102/52 173/99/52
f  175/103/33 176/104/33 174/105/33
f  174/105/33 173/106/33 175/103/33
f  148/62/34 155/73/34 154/72/34
f  154/72/34 145/59/34 148/62/34
f  146/60/34 169/95/34 172/98/34
f  172/98/34 147/61/34 146/60/34
f  145/107/53 154/108/57 158/109/53
f  158/109/53 149/110/57 145/107/53
f  150/111/54 173/112/58 169/113/54
f  169/113/54 146/114/58 150/111/54
f  149/70/33 158/81/33 160/80/33
f  160/80/33 151/67/33 149/70/33
f  152/68/33 175/103/33 173/106/33
f  173/106/33 150/69/33 152/68/33
f  156/74/34 163/85/34 162/84/34
f  162/84/34 153/71/34 156/74/34
f  153/115/55 162/116/59 166/117/55
f  166/117/55 157/118/59 153/115/55
f  157/82/33 166/93/33 168/92/33
f  168/92/33 159/79/33 157/82/33
f  164/86/34 171/97/34 170/96/34
f  170/96/34 161/83/34 164/86/34
f  161/119/56 170/120/60 174/121/56
f  174/121/56 165/122/60 161/119/56
f  165/94/33 174/105/33 176/104/33
f  176/104/33 167/91/33 165/94/33
f  177/59/34 178/60/34 179/61/34
f  179/61/34 180/62/34 177/59/34
f  181/63/49 182/64/49 178/65/49
f  178/65/49 177/66/49 181/63/49
f  183/67/33 184/68/33 182/69/33
f  182/69/33 181/70/33 183/67/33
f  185/71/34 186/72/34 187/73/34
f  187/73/34 188/74/34 185/71/34
f  189/75/50 190/76/50 186/77/50
f  186/77/50 185/78/50 189/75/50
f  191/79/33 192/80/33 190/81/33
f  190/81/33 189/82/33 191/79/33
f  193/83/34 194/84/34 195/85/34
f  195/85/34 196/86/34 193/83/34
f  197/87/51 198/88/51 194/89/51
f  194/89/51 193/90/51 197/87/51
f  199/91/33 200/92/33 198/93/33
f  198/93/33 197/94/33 199/91/33
f  201/95/34 202/96/34 203/97/34
f  203/97/34 204/98/34 201/95/34
f  205/99/52 206/100/52 202/101/52
f  202/101/52 201/102/52 205/99/52
f  207/103/33 208/104/33 206/105/33
f  206/105/33 205/106/33 207/103/33
f  180/62/34 187/73/34 186/72/34
f  186/72/34 177/59/34 180/62/34
f  178/60/34 201/95/34 204/98/34
f  204/98/34 179/61/34 178/60/34
f  177/107/57 186/108/57 190/109/57
f  190/109/57 181/110/57 177/107/57
f  182/111/58 205/112/58 201/113/58
f  201/113/58 178/114/58 182/111/58
f  181/70/33 190/81/33 192/80/33
f  192/80/33 183/67/33 181/70/33
f  184/68/33 207/103/33 205/106/33
f  205/106/33 182/69/33 184/68/33
f  188/74/34 195/85/34 194/84/34
f  194/84/34 185/71/34 188/74/34
f  185/115/59 194/116/59 198/117/59
f  198/117/59 189/118/59 185/115/59
f  189/82/33 198/93/33 200/92/33
f  200/92/33 191/79/33 189/82/33
f  196/86/34 203/97/34 202/96/34
f  202/96/34 193/83/34 196/86/34
f  193/119/60 202/120/60 206/121/60
f  206/121/60 197/122/60 193/119/60
f  197/94/33 206/105/33 208/104/33
f  208/104/33 199/91/33 197/94/33

